<svg id="visual" viewBox="0 0 900 900" width="900" height="900" xmlns="http://www.w3.org/2000/svg" xmlns:xlink="http://www.w3.org/1999/xlink" version="1.1"><rect x="0" y="0" width="900" height="900" fill="#001220"></rect><defs><linearGradient id="grad1_0" x1="0%" y1="0%" x2="100%" y2="100%"><stop offset="30%" stop-color="#6366f1" stop-opacity="1"></stop><stop offset="70%" stop-color="#6366f1" stop-opacity="1"></stop></linearGradient></defs><defs><linearGradient id="grad1_1" x1="0%" y1="0%" x2="100%" y2="100%"><stop offset="30%" stop-color="#6366f1" stop-opacity="1"></stop><stop offset="70%" stop-color="#1d56bd" stop-opacity="1"></stop></linearGradient></defs><defs><linearGradient id="grad1_2" x1="0%" y1="0%" x2="100%" y2="100%"><stop offset="30%" stop-color="#004187" stop-opacity="1"></stop><stop offset="70%" stop-color="#1d56bd" stop-opacity="1"></stop></linearGradient></defs><defs><linearGradient id="grad1_3" x1="0%" y1="0%" x2="100%" y2="100%"><stop offset="30%" stop-color="#004187" stop-opacity="1"></stop><stop offset="70%" stop-color="#002a51" stop-opacity="1"></stop></linearGradient></defs><defs><linearGradient id="grad1_4" x1="0%" y1="0%" x2="100%" y2="100%"><stop offset="30%" stop-color="#001220" stop-opacity="1"></stop><stop offset="70%" stop-color="#002a51" stop-opacity="1"></stop></linearGradient></defs><defs><linearGradient id="grad2_0" x1="0%" y1="0%" x2="100%" y2="100%"><stop offset="30%" stop-color="#6366f1" stop-opacity="1"></stop><stop offset="70%" stop-color="#6366f1" stop-opacity="1"></stop></linearGradient></defs><defs><linearGradient id="grad2_1" x1="0%" y1="0%" x2="100%" y2="100%"><stop offset="30%" stop-color="#1d56bd" stop-opacity="1"></stop><stop offset="70%" stop-color="#6366f1" stop-opacity="1"></stop></linearGradient></defs><defs><linearGradient id="grad2_2" x1="0%" y1="0%" x2="100%" y2="100%"><stop offset="30%" stop-color="#1d56bd" stop-opacity="1"></stop><stop offset="70%" stop-color="#004187" stop-opacity="1"></stop></linearGradient></defs><defs><linearGradient id="grad2_3" x1="0%" y1="0%" x2="100%" y2="100%"><stop offset="30%" stop-color="#002a51" stop-opacity="1"></stop><stop offset="70%" stop-color="#004187" stop-opacity="1"></stop></linearGradient></defs><defs><linearGradient id="grad2_4" x1="0%" y1="0%" x2="100%" y2="100%"><stop offset="30%" stop-color="#002a51" stop-opacity="1"></stop><stop offset="70%" stop-color="#001220" stop-opacity="1"></stop></linearGradient></defs><g transform="translate(900, 0)"><path d="M0 636.4C-50.5 606 -101 575.6 -148.8 555.4C-196.7 535.2 -241.9 525.1 -296.5 513.6C-351.1 502 -415 489 -450 450C-485 411 -491 345.8 -508.4 293.5C-525.7 241.2 -554.4 201.6 -577.6 154.8C-600.9 108 -618.6 54 -636.4 0L0 0Z" fill="#001e38"></path><path d="M0 509.1C-40.4 484.8 -80.8 460.5 -119.1 444.3C-157.3 428.1 -193.5 420.1 -237.2 410.8C-280.9 401.6 -332 391.2 -360 360C-388 328.8 -392.8 276.7 -406.7 234.8C-420.6 192.9 -443.5 161.3 -462.1 123.8C-480.7 86.4 -494.9 43.2 -509.1 0L0 0Z" fill="#00366c"></path><path d="M0 381.8C-30.3 363.6 -60.6 345.4 -89.3 333.2C-118 321.1 -145.1 315.1 -177.9 308.1C-210.7 301.2 -249 293.4 -270 270C-291 246.6 -294.6 207.5 -305 176.1C-315.4 144.7 -332.6 120.9 -346.6 92.9C-360.5 64.8 -371.2 32.4 -381.8 0L0 0Z" fill="#004ca2"></path><path d="M0 254.6C-20.2 242.4 -40.4 230.3 -59.5 222.2C-78.7 214.1 -96.8 210 -118.6 205.4C-140.4 200.8 -166 195.6 -180 180C-194 164.4 -196.4 138.3 -203.3 117.4C-210.3 96.5 -221.8 80.6 -231 61.9C-240.3 43.2 -247.4 21.6 -254.6 0L0 0Z" fill="#415ed8"></path><path d="M0 127.3C-10.1 121.2 -20.2 115.1 -29.8 111.1C-39.3 107 -48.4 105 -59.3 102.7C-70.2 100.4 -83 97.8 -90 90C-97 82.2 -98.2 69.2 -101.7 58.7C-105.1 48.2 -110.9 40.3 -115.5 31C-120.2 21.6 -123.7 10.8 -127.3 0L0 0Z" fill="#6366f1"></path></g><g transform="translate(0, 900)"><path d="M0 -636.4C50.9 -608.3 101.9 -580.1 149.3 -557.3C196.8 -534.5 240.7 -517.1 288.5 -499.7C336.3 -482.3 387.8 -464.9 436.3 -436.3C484.8 -407.6 530.2 -367.7 551.1 -318.2C572.1 -268.7 568.5 -209.7 578.6 -155C588.7 -100.4 612.6 -50.2 636.4 0L0 0Z" fill="#001e38"></path><path d="M0 -509.1C40.8 -486.6 81.5 -464.1 119.5 -445.9C157.4 -427.6 192.6 -413.7 230.8 -399.8C269 -385.8 310.2 -371.9 349 -349C387.8 -326.1 424.2 -294.2 440.9 -254.6C457.6 -215 454.8 -167.7 462.9 -124C471 -80.3 490 -40.2 509.1 0L0 0Z" fill="#00366c"></path><path d="M0 -381.8C30.6 -365 61.1 -348.1 89.6 -334.4C118.1 -320.7 144.4 -310.3 173.1 -299.8C201.8 -289.4 232.7 -279 261.8 -261.8C290.9 -244.6 318.1 -220.6 330.7 -190.9C343.2 -161.2 341.1 -125.8 347.2 -93C353.2 -60.2 367.5 -30.1 381.8 0L0 0Z" fill="#004ca2"></path><path d="M0 -254.6C20.4 -243.3 40.8 -232.1 59.7 -222.9C78.7 -213.8 96.3 -206.8 115.4 -199.9C134.5 -192.9 155.1 -186 174.5 -174.5C193.9 -163.1 212.1 -147.1 220.5 -127.3C228.8 -107.5 227.4 -83.9 231.4 -62C235.5 -40.2 245 -20.1 254.6 0L0 0Z" fill="#415ed8"></path><path d="M0 -127.3C10.2 -121.7 20.4 -116 29.9 -111.5C39.4 -106.9 48.1 -103.4 57.7 -99.9C67.3 -96.5 77.6 -93 87.3 -87.3C97 -81.5 106 -73.5 110.2 -63.6C114.4 -53.7 113.7 -41.9 115.7 -31C117.7 -20.1 122.5 -10 127.3 0L0 0Z" fill="#6366f1"></path></g></svg>