<svg id="visual" viewBox="0 0 900 900" xmlns="http://www.w3.org/2000/svg" xmlns:xlink="http://www.w3.org/1999/xlink" version="1.1"><rect x="0" y="0" width="100%" height="100%" fill="#001122"></rect><path d="M346 900L364 900L364 840L403 840L403 780L449 780L449 720L467 720L467 660L457 660L457 600L306 600L306 540L392 540L392 480L339 480L339 420L393 420L393 360L318 360L318 300L381 300L381 240L279 240L279 180L303 180L303 120L318 120L318 60L409 60L409 0L900 0L900 60L900 60L900 120L900 120L900 180L900 180L900 240L900 240L900 300L900 300L900 360L900 360L900 420L900 420L900 480L900 480L900 540L900 540L900 600L900 600L900 660L900 660L900 720L900 720L900 780L900 780L900 840L900 840L900 900L900 900Z" fill="#4644b7"></path><path d="M407 900L448 900L448 840L547 840L547 780L453 780L453 720L463 720L463 660L507 660L507 600L460 600L460 540L515 540L515 480L399 480L399 420L494 420L494 360L525 360L525 300L551 300L551 240L493 240L493 180L446 180L446 120L449 120L449 60L461 60L461 0L900 0L900 60L900 60L900 120L900 120L900 180L900 180L900 240L900 240L900 300L900 300L900 360L900 360L900 420L900 420L900 480L900 480L900 540L900 540L900 600L900 600L900 660L900 660L900 720L900 720L900 780L900 780L900 840L900 840L900 900L900 900Z" fill="#5555d4"></path><path d="M557 900L632 900L632 840L614 840L614 780L529 780L529 720L535 720L535 660L519 660L519 600L590 600L590 540L530 540L530 480L644 480L644 420L627 420L627 360L616 360L616 300L648 300L648 240L571 240L571 180L644 180L644 120L616 120L616 60L517 60L517 0L900 0L900 60L900 60L900 120L900 120L900 180L900 180L900 240L900 240L900 300L900 300L900 360L900 360L900 420L900 420L900 480L900 480L900 540L900 540L900 600L900 600L900 660L900 660L900 720L900 720L900 780L900 780L900 840L900 840L900 900L900 900Z" fill="#6366f1"></path><path d="M687 900L694 900L694 840L655 840L655 780L612 780L612 720L639 720L639 660L674 660L674 600L672 600L672 540L746 540L746 480L719 480L719 420L637 420L637 360L715 360L715 300L618 300L618 240L620 240L620 180L664 180L664 120L674 120L674 60L719 60L719 0L900 0L900 60L900 60L900 120L900 120L900 180L900 180L900 240L900 240L900 300L900 300L900 360L900 360L900 420L900 420L900 480L900 480L900 540L900 540L900 600L900 600L900 660L900 660L900 720L900 720L900 780L900 780L900 840L900 840L900 900L900 900Z" fill="#7e7df5"></path><path d="M780 900L737 900L737 840L815 840L815 780L791 780L791 720L824 720L824 660L733 660L733 600L823 600L823 540L789 540L789 480L727 480L727 420L795 420L795 360L761 360L761 300L808 300L808 240L760 240L760 180L823 180L823 120L746 120L746 60L788 60L788 0L900 0L900 60L900 60L900 120L900 120L900 180L900 180L900 240L900 240L900 300L900 300L900 360L900 360L900 420L900 420L900 480L900 480L900 540L900 540L900 600L900 600L900 660L900 660L900 720L900 720L900 780L900 780L900 840L900 840L900 900L900 900Z" fill="#9695f9"></path></svg>
