<svg id="visual" viewBox="0 0 900 900" xmlns="http://www.w3.org/2000/svg" xmlns:xlink="http://www.w3.org/1999/xlink" version="1.1"><rect x="0" y="0" width="900" height="900" fill="#001220"></rect><path d="M349 900L322 885C295 870 241 840 233.8 810C226.7 780 266.3 750 286.3 720C306.3 690 306.7 660 300.8 630C295 600 283 570 295.7 540C308.3 510 345.7 480 359.8 450C374 420 365 390 343.8 360C322.7 330 289.3 300 285.8 270C282.3 240 308.7 210 310.8 180C313 150 291 120 267.7 90C244.3 60 219.7 30 207.3 15L195 0L900 0L900 15C900 30 900 60 900 90C900 120 900 150 900 180C900 210 900 240 900 270C900 300 900 330 900 360C900 390 900 420 900 450C900 480 900 510 900 540C900 570 900 600 900 630C900 660 900 690 900 720C900 750 900 780 900 810C900 840 900 870 900 885L900 900Z" fill="#4644b7"></path><path d="M350 900L336 885C322 870 294 840 284.2 810C274.3 780 282.7 750 306 720C329.3 690 367.7 660 363.8 630C360 600 314 570 299.5 540C285 510 302 480 313.3 450C324.7 420 330.3 390 342.8 360C355.3 330 374.7 300 376.2 270C377.7 240 361.3 210 345.8 180C330.3 150 315.7 120 312.5 90C309.3 60 317.7 30 321.8 15L326 0L900 0L900 15C900 30 900 60 900 90C900 120 900 150 900 180C900 210 900 240 900 270C900 300 900 330 900 360C900 390 900 420 900 450C900 480 900 510 900 540C900 570 900 600 900 630C900 660 900 690 900 720C900 750 900 780 900 810C900 840 900 870 900 885L900 900Z" fill="#4b4ac1"></path><path d="M357 900L371.8 885C386.7 870 416.3 840 429.3 810C442.3 780 438.7 750 430.8 720C423 690 411 660 396 630C381 600 363 570 361.3 540C359.7 510 374.3 480 385.8 450C397.3 420 405.7 390 421.8 360C438 330 462 300 465.3 270C468.7 240 451.3 210 447.5 180C443.7 150 453.3 120 451.2 90C449 60 435 30 428 15L421 0L900 0L900 15C900 30 900 60 900 90C900 120 900 150 900 180C900 210 900 240 900 270C900 300 900 330 900 360C900 390 900 420 900 450C900 480 900 510 900 540C900 570 900 600 900 630C900 660 900 690 900 720C900 750 900 780 900 810C900 840 900 870 900 885L900 900Z" fill="#5150cc"></path><path d="M422 900L438.5 885C455 870 488 840 490.7 810C493.3 780 465.7 750 467.5 720C469.3 690 500.7 660 500.7 630C500.7 600 469.3 570 451.2 540C433 510 428 480 444.3 450C460.7 420 498.3 390 514.8 360C531.3 330 526.7 300 500.7 270C474.7 240 427.3 210 400.7 180C374 150 368 120 369 90C370 60 378 30 382 15L386 0L900 0L900 15C900 30 900 60 900 90C900 120 900 150 900 180C900 210 900 240 900 270C900 300 900 330 900 360C900 390 900 420 900 450C900 480 900 510 900 540C900 570 900 600 900 630C900 660 900 690 900 720C900 750 900 780 900 810C900 840 900 870 900 885L900 900Z" fill="#5656d6"></path><path d="M536 900L515.8 885C495.7 870 455.3 840 460 810C464.7 780 514.3 750 527.2 720C540 690 516 660 518.5 630C521 600 550 570 556.2 540C562.3 510 545.7 480 537.5 450C529.3 420 529.7 390 515 360C500.3 330 470.7 300 456.3 270C442 240 443 210 449.8 180C456.7 150 469.3 120 482 90C494.7 60 507.3 30 513.7 15L520 0L900 0L900 15C900 30 900 60 900 90C900 120 900 150 900 180C900 210 900 240 900 270C900 300 900 330 900 360C900 390 900 420 900 450C900 480 900 510 900 540C900 570 900 600 900 630C900 660 900 690 900 720C900 750 900 780 900 810C900 840 900 870 900 885L900 900Z" fill="#5b5ce1"></path><path d="M503 900L521.8 885C540.7 870 578.3 840 575 810C571.7 780 527.3 750 527.7 720C528 690 573 660 587 630C601 600 584 570 566.8 540C549.7 510 532.3 480 539 450C545.7 420 576.3 390 590.3 360C604.3 330 601.7 300 588.7 270C575.7 240 552.3 210 536 180C519.7 150 510.3 120 501.3 90C492.3 60 483.7 30 479.3 15L475 0L900 0L900 15C900 30 900 60 900 90C900 120 900 150 900 180C900 210 900 240 900 270C900 300 900 330 900 360C900 390 900 420 900 450C900 480 900 510 900 540C900 570 900 600 900 630C900 660 900 690 900 720C900 750 900 780 900 810C900 840 900 870 900 885L900 900Z" fill="#6063ec"></path><path d="M545 900L544.8 885C544.7 870 544.3 840 541.8 810C539.3 780 534.7 750 554.5 720C574.3 690 618.7 660 628.8 630C639 600 615 570 593.7 540C572.3 510 553.7 480 541.2 450C528.7 420 522.3 390 535.7 360C549 330 582 300 592.8 270C603.7 240 592.3 210 578.8 180C565.3 150 549.7 120 555.2 90C560.7 60 587.3 30 600.7 15L614 0L900 0L900 15C900 30 900 60 900 90C900 120 900 150 900 180C900 210 900 240 900 270C900 300 900 330 900 360C900 390 900 420 900 450C900 480 900 510 900 540C900 570 900 600 900 630C900 660 900 690 900 720C900 750 900 780 900 810C900 840 900 870 900 885L900 900Z" fill="#686af2"></path><path d="M634 900L631.2 885C628.3 870 622.7 840 614 810C605.3 780 593.7 750 607 720C620.3 690 658.7 660 672 630C685.3 600 673.7 570 654.2 540C634.7 510 607.3 480 605.5 450C603.7 420 627.3 390 626.5 360C625.7 330 600.3 300 598.7 270C597 240 619 210 623.8 180C628.7 150 616.3 120 605.8 90C595.3 60 586.7 30 582.3 15L578 0L900 0L900 15C900 30 900 60 900 90C900 120 900 150 900 180C900 210 900 240 900 270C900 300 900 330 900 360C900 390 900 420 900 450C900 480 900 510 900 540C900 570 900 600 900 630C900 660 900 690 900 720C900 750 900 780 900 810C900 840 900 870 900 885L900 900Z" fill="#7273f4"></path><path d="M731 900L728 885C725 870 719 840 703.2 810C687.3 780 661.7 750 667.5 720C673.3 690 710.7 660 716.8 630C723 600 698 570 687.2 540C676.3 510 679.7 480 684.8 450C690 420 697 390 698.2 360C699.3 330 694.7 300 690.7 270C686.7 240 683.3 210 691.7 180C700 150 720 120 725.2 90C730.3 60 720.7 30 715.8 15L711 0L900 0L900 15C900 30 900 60 900 90C900 120 900 150 900 180C900 210 900 240 900 270C900 300 900 330 900 360C900 390 900 420 900 450C900 480 900 510 900 540C900 570 900 600 900 630C900 660 900 690 900 720C900 750 900 780 900 810C900 840 900 870 900 885L900 900Z" fill="#7b7bf5"></path><path d="M772 900L763.7 885C755.3 870 738.7 840 737.7 810C736.7 780 751.3 750 752.8 720C754.3 690 742.7 660 735.5 630C728.3 600 725.7 570 731.8 540C738 510 753 480 758.5 450C764 420 760 390 755.2 360C750.3 330 744.7 300 733.2 270C721.7 240 704.3 210 705.3 180C706.3 150 725.7 120 742.8 90C760 60 775 30 782.5 15L790 0L900 0L900 15C900 30 900 60 900 90C900 120 900 150 900 180C900 210 900 240 900 270C900 300 900 330 900 360C900 390 900 420 900 450C900 480 900 510 900 540C900 570 900 600 900 630C900 660 900 690 900 720C900 750 900 780 900 810C900 840 900 870 900 885L900 900Z" fill="#8484f6"></path><path d="M780 900L781.5 885C783 870 786 840 787.8 810C789.7 780 790.3 750 795 720C799.7 690 808.3 660 814.7 630C821 600 825 570 815.5 540C806 510 783 480 782.7 450C782.3 420 804.7 390 815 360C825.3 330 823.7 300 822.7 270C821.7 240 821.3 210 812.8 180C804.3 150 787.7 120 783.2 90C778.7 60 786.3 30 790.2 15L794 0L900 0L900 15C900 30 900 60 900 90C900 120 900 150 900 180C900 210 900 240 900 270C900 300 900 330 900 360C900 390 900 420 900 450C900 480 900 510 900 540C900 570 900 600 900 630C900 660 900 690 900 720C900 750 900 780 900 810C900 840 900 870 900 885L900 900Z" fill="#8d8cf8"></path><path d="M821 900L821.3 885C821.7 870 822.3 840 819.7 810C817 780 811 750 818 720C825 690 845 660 848.8 630C852.7 600 840.3 570 836.2 540C832 510 836 480 841.8 450C847.7 420 855.3 390 850.2 360C845 330 827 300 824.7 270C822.3 240 835.7 210 839.2 180C842.7 150 836.3 120 835 90C833.7 60 837.3 30 839.2 15L841 0L900 0L900 15C900 30 900 60 900 90C900 120 900 150 900 180C900 210 900 240 900 270C900 300 900 330 900 360C900 390 900 420 900 450C900 480 900 510 900 540C900 570 900 600 900 630C900 660 900 690 900 720C900 750 900 780 900 810C900 840 900 870 900 885L900 900Z" fill="#9695f9"></path></svg>
