<svg id="visual" viewBox="0 0 900 900" xmlns="http://www.w3.org/2000/svg" xmlns:xlink="http://www.w3.org/1999/xlink" version="1.1"><path d="M872 900L872 887.5C872 875 872 850 872 825C872 800 872 775 870.5 750C869 725 866 700 863 675C860 650 857 625 858.5 600C860 575 866 550 864.5 525C863 500 854 475 854 450C854 425 863 400 863 375C863 350 854 325 854 300C854 275 863 250 864.5 225C866 200 860 175 858.5 150C857 125 860 100 863 75C866 50 869 25 870.5 12.5L872 0L900 0L900 12.5C900 25 900 50 900 75C900 100 900 125 900 150C900 175 900 200 900 225C900 250 900 275 900 300C900 325 900 350 900 375C900 400 900 425 900 450C900 475 900 500 900 525C900 550 900 575 900 600C900 625 900 650 900 675C900 700 900 725 900 750C900 775 900 800 900 825C900 850 900 875 900 887.5L900 900Z" fill="#001122"></path><path d="M764 900L768.5 887.5C773 875 782 850 785 825C788 800 785 775 779 750C773 725 764 700 764 675C764 650 773 625 780.5 600C788 575 794 550 789.5 525C785 500 770 475 771.5 450C773 425 791 400 788 375C785 350 761 325 761 300C761 275 785 250 785 225C785 200 761 175 756.5 150C752 125 767 100 773 75C779 50 776 25 774.5 12.5L773 0L873 0L871.5 12.5C870 25 867 50 864 75C861 100 858 125 859.5 150C861 175 867 200 865.5 225C864 250 855 275 855 300C855 325 864 350 864 375C864 400 855 425 855 450C855 475 864 500 865.5 525C867 550 861 575 859.5 600C858 625 861 650 864 675C867 700 870 725 871.5 750C873 775 873 800 873 825C873 850 873 875 873 887.5L873 900Z" fill="#002b58"></path><path d="M701 900L704 887.5C707 875 713 850 708.5 825C704 800 689 775 686 750C683 725 692 700 698 675C704 650 707 625 713 600C719 575 728 550 723.5 525C719 500 701 475 704 450C707 425 731 400 728 375C725 350 695 325 696.5 300C698 275 731 250 731 225C731 200 698 175 690.5 150C683 125 701 100 710 75C719 50 719 25 719 12.5L719 0L774 0L775.5 12.5C777 25 780 50 774 75C768 100 753 125 757.5 150C762 175 786 200 786 225C786 250 762 275 762 300C762 325 786 350 789 375C792 400 774 425 772.5 450C771 475 786 500 790.5 525C795 550 789 575 781.5 600C774 625 765 650 765 675C765 700 774 725 780 750C786 775 789 800 786 825C783 850 774 875 769.5 887.5L765 900Z" fill="#094493"></path><path d="M431 900L458 887.5C485 875 539 850 548 825C557 800 521 775 507.5 750C494 725 503 700 519.5 675C536 650 560 625 560 600C560 575 536 550 530 525C524 500 536 475 536 450C536 425 524 400 530 375C536 350 560 325 572 300C584 275 584 250 578 225C572 200 560 175 548 150C536 125 524 100 522.5 75C521 50 530 25 534.5 12.5L539 0L720 0L720 12.5C720 25 720 50 711 75C702 100 684 125 691.5 150C699 175 732 200 732 225C732 250 699 275 697.5 300C696 325 726 350 729 375C732 400 708 425 705 450C702 475 720 500 724.5 525C729 550 720 575 714 600C708 625 705 650 699 675C693 700 684 725 687 750C690 775 705 800 709.5 825C714 850 708 875 705 887.5L702 900Z" fill="#405ace"></path><path d="M395 900L417.5 887.5C440 875 485 850 489.5 825C494 800 458 775 449 750C440 725 458 700 473 675C488 650 500 625 498.5 600C497 575 482 550 480.5 525C479 500 491 475 486.5 450C482 425 461 400 465.5 375C470 350 500 325 513.5 300C527 275 524 250 521 225C518 200 515 175 501.5 150C488 125 464 100 459.5 75C455 50 470 25 477.5 12.5L485 0L540 0L535.5 12.5C531 25 522 50 523.5 75C525 100 537 125 549 150C561 175 573 200 579 225C585 250 585 275 573 300C561 325 537 350 531 375C525 400 537 425 537 450C537 475 525 500 531 525C537 550 561 575 561 600C561 625 537 650 520.5 675C504 700 495 725 508.5 750C522 775 558 800 549 825C540 850 486 875 459 887.5L432 900Z" fill="#6366f1"></path><path d="M332 900L350 887.5C368 875 404 850 398 825C392 800 344 775 323 750C302 725 308 700 324.5 675C341 650 368 625 372.5 600C377 575 359 550 353 525C347 500 353 475 351.5 450C350 425 341 400 347 375C353 350 374 325 384.5 300C395 275 395 250 395 225C395 200 395 175 386 150C377 125 359 100 359 75C359 50 377 25 386 12.5L395 0L486 0L478.5 12.5C471 25 456 50 460.5 75C465 100 489 125 502.5 150C516 175 519 200 522 225C525 250 528 275 514.5 300C501 325 471 350 466.5 375C462 400 483 425 487.5 450C492 475 480 500 481.5 525C483 550 498 575 499.5 600C501 625 489 650 474 675C459 700 441 725 450 750C459 775 495 800 490.5 825C486 850 441 875 418.5 887.5L396 900Z" fill="#6366f1"></path><path d="M251 900L272 887.5C293 875 335 850 336.5 825C338 800 299 775 281 750C263 725 266 700 273.5 675C281 650 293 625 291.5 600C290 575 275 550 270.5 525C266 500 272 475 273.5 450C275 425 272 400 278 375C284 350 299 325 308 300C317 275 320 250 324.5 225C329 200 335 175 323 150C311 125 281 100 278 75C275 50 299 25 311 12.5L323 0L396 0L387 12.5C378 25 360 50 360 75C360 100 378 125 387 150C396 175 396 200 396 225C396 250 396 275 385.5 300C375 325 354 350 348 375C342 400 351 425 352.5 450C354 475 348 500 354 525C360 550 378 575 373.5 600C369 625 342 650 325.5 675C309 700 303 725 324 750C345 775 393 800 399 825C405 850 369 875 351 887.5L333 900Z" fill="#405ace"></path><path d="M224 900L240.5 887.5C257 875 290 850 290 825C290 800 257 775 243.5 750C230 725 236 700 243.5 675C251 650 260 625 257 600C254 575 239 550 233 525C227 500 230 475 233 450C236 425 239 400 246.5 375C254 350 266 325 272 300C278 275 278 250 284 225C290 200 302 175 293 150C284 125 254 100 245 75C236 50 248 25 254 12.5L260 0L324 0L312 12.5C300 25 276 50 279 75C282 100 312 125 324 150C336 175 330 200 325.5 225C321 250 318 275 309 300C300 325 285 350 279 375C273 400 276 425 274.5 450C273 475 267 500 271.5 525C276 550 291 575 292.5 600C294 625 282 650 274.5 675C267 700 264 725 282 750C300 775 339 800 337.5 825C336 850 294 875 273 887.5L252 900Z" fill="#094493"></path><path d="M80 900L74 887.5C68 875 56 850 50 825C44 800 44 775 48.5 750C53 725 62 700 60.5 675C59 650 47 625 45.5 600C44 575 53 550 56 525C59 500 56 475 54.5 450C53 425 53 400 56 375C59 350 65 325 63.5 300C62 275 53 250 50 225C47 200 50 175 51.5 150C53 125 53 100 50 75C47 50 41 25 38 12.5L35 0L261 0L255 12.5C249 25 237 50 246 75C255 100 285 125 294 150C303 175 291 200 285 225C279 250 279 275 273 300C267 325 255 350 247.5 375C240 400 237 425 234 450C231 475 228 500 234 525C240 550 255 575 258 600C261 625 252 650 244.5 675C237 700 231 725 244.5 750C258 775 291 800 291 825C291 850 258 875 241.5 887.5L225 900Z" fill="#002b58"></path><path d="M0 900L0 887.5C0 875 0 850 0 825C0 800 0 775 0 750C0 725 0 700 0 675C0 650 0 625 0 600C0 575 0 550 0 525C0 500 0 475 0 450C0 425 0 400 0 375C0 350 0 325 0 300C0 275 0 250 0 225C0 200 0 175 0 150C0 125 0 100 0 75C0 50 0 25 0 12.5L0 0L36 0L39 12.5C42 25 48 50 51 75C54 100 54 125 52.5 150C51 175 48 200 51 225C54 250 63 275 64.5 300C66 325 60 350 57 375C54 400 54 425 55.5 450C57 475 60 500 57 525C54 550 45 575 46.5 600C48 625 60 650 61.5 675C63 700 54 725 49.5 750C45 775 45 800 51 825C57 850 69 875 75 887.5L81 900Z" fill="#001122"></path></svg>
