<svg xmlns="http://www.w3.org/2000/svg" xmlns:ev="http://www.w3.org/2001/xml-events" xmlns:xlink="http://www.w3.org/1999/xlink" baseProfile="full" height="100%" version="1.1" viewBox="492,-9,58,79" width="100%" data-llp-composed="true" id="test" class="lazy-line-painter"><defs/><path d="M0,0 M515.457903703492,21.67169673141344 " fill="none" stroke="#000000" stroke-linecap="round" stroke-width="2.94" data-llp-id="test-1" data-llp-duration="0.0" data-llp-delay="0" fill-opacity="0" style=""/><path d="M 515.457903703492,21.67169673141344 L 515.6366105164435,21.69904251676182 C 515.636641868516,21.69904731426802 515.6554203479517,21.70170464617852 515.6554518001583,21.701708736070014 L 515.8684968659938,21.729412076993732 C 515.8685342423212,21.729416937228983 515.8909171345701,21.73205292343528 515.8909546174142,21.73205687920741 L 516.1441150442805,21.758774301160695 C 516.1441594583905,21.758778988427704 516.1707505377701,21.76124260918605 516.170795057036,21.76124616145335 L 516.4623161573337,21.78450712165439 C 516.4623673013864,21.784511202524598 516.4929786180462,21.786541958842992 516.493029852979,21.786544669799934 L 516.8215350027925,21.803926625184683 C 516.8215926352749,21.80392967465054 516.8560756035281,21.8052716055203 516.8561332986988,21.805273044117556 L 517.220227256271,21.814351526105398 C 517.2202911324039,21.814353118821533 517.2584948322861,21.81475021865179 517.2585587277248,21.81474995402873 L 517.6568475453871,21.813100440257944 C 517.6569174206184,21.813100150869563 517.6986906823844,21.812296651451643 517.6987605170589,21.812294253551 L 518.1298505499324,21.797491992703492 C 518.1299261797626,21.797489395815624 518.1751172546583,21.795226297942552 518.1751927655466,21.79522132594121 L 518.6373018636283,21.764793832584598 C 518.6373829354,21.76478849442787 518.6857944365206,21.760761705161816 518.685875276124,21.760753575795913 L 519.1732287341327,21.711744495884595 C 519.1733142347395,21.7117358978004 519.2243231128041,21.705593664334117 519.2244082104518,21.70558171983147 L 519.7290678301123,21.634746528440584 C 519.7291563668877,21.634734101214022 519.7819074342052,21.62611566262564 519.7819953224041,21.626099265642875 L 520.2961053731724,21.530183616612394 C 520.2961955679181,21.530166789305547 520.3498360958399,21.518717599803725 520.3499253008531,21.51869613550689 L 520.8658414498716,21.394557626131807 C 520.8659319614767,21.39453584744595 520.9196662785641,21.3800586281565 520.9197554803942,21.380031988048746 L 521.4336428687475,21.22655962764926 C 521.4337330244297,21.22653270267375 521.4871911796739,21.209041158513013 521.4872798138086,21.209009583340826 L 521.9984700360985,21.026902324746988 C 521.9985597185937,21.02687037610513 522.0516808871625,21.006441623375274 522.0517688674385,21.00640524842941 L 522.5595719985712,20.79645692538675 C 522.5596610868398,20.79642009234762 522.6123801934918,20.77313579735601 522.6124674233057,20.773094756498846 L 523.1161724302608,20.53610599846727 C 523.1162607995603,20.536064421492178 523.1685046381804,20.509996878126888 523.1685909974381,20.5099512726827 L 523.6665573023374,20.246980340478967 C 523.6666446648471,20.246934205227703 523.7182348806828,20.21817472103986 523.718320060701,20.218124670725278 L 524.2077446253229,19.93054720916165 C 524.2078304892816,19.93049675697541 524.2584684972812,19.899180488842404 524.2585519912088,19.899126204345926 L 524.736606973848,19.58831349288039 C 524.7366908431433,19.588258964334518 524.7860740990046,19.554522905559757 524.7861553911002,19.55446460447762 L 525.2500206659306,19.221789609747614 C 525.2501020458034,19.22173124571345 525.2979496804552,19.185742630609408 525.2980283261163,19.185680631382354 L 525.7454905372408,18.83292994162826 C 525.7455690393831,18.832868055542342 525.7916914586059,18.794862781487677 525.7917672120462,18.794797559633615 L 526.2217741545967,18.424572129468434 C 526.2218495944112,18.42450717763858 526.2661444006626,18.384754297619356 526.2662171040129,18.384686296673227 L 526.677831435797,17.999694904797494 C 526.6779036488376,17.999627362448045 526.7202739063141,17.958401328020457 526.7203433998202,17.958330990656105 L 527.1126280982813,17.561282786844853 C 527.1126969201582,17.561213129265237 527.1530403977106,17.518785774528787 527.1531065038522,17.518713534600924 L 527.524840995893,17.11248693869629 C 527.5249062124706,17.112415670872448 527.5630789486706,17.069069413664508 527.5631414001072,17.06899571072846 L 527.9122731344357,16.656963012491378 C 527.9123343856172,16.656890726053092 527.9481093546954,16.61296846842774 527.9481677522399,16.612893857683336 L 528.2725232009064,16.198485997513465 C 528.2725801053712,16.198413294380103 528.3057169955479,16.154267282607247 528.3057709168029,16.154192340216287 L 528.603183166947,15.74083428435119 C 528.6032353445348,15.74076176539402 528.6334985515233,15.696749767265711 528.6335475886747,15.696675088904724 L 528.902023515442,15.287814834503399 C 528.9020706164818,15.287743104634206 528.9292680041528,15.244242780778395 528.9293118642759,15.244169024614626 L 529.167710005076,14.843273379228073 C 529.1677516284021,14.843203384511757 529.1916423279306,14.800783322823452 529.1916806066095,14.800711444423754 L 529.3991104278812,14.411206789569103 C 529.3991462900422,14.411139448824356 529.4195469140545,14.370347095406299 529.4195792814053,14.3702780068754 L 529.5950717009881,13.995687155994075 C 529.5951017059202,13.995623110076597 529.6119298844624,13.956839947643672 529.611956161064,13.956774283987796 L 529.7544893544267,13.600592357543468 C 529.7545134992116,13.600532021169954 529.7677222041343,13.564006114931086 529.7677422356201,13.563944291083065 L 529.8764419648454,13.228460661995838 C 529.8764602306442,13.228404287647077 529.8860010310877,13.194305701650244 529.8860146743206,13.194248033905371 L 529.9600742616572,12.881210102695526 C 529.9600866177902,12.881157875313635 529.9659075584372,12.849636340427619 529.965914670333,12.849583144615913 L 530.0045283035909,12.560759514060555 C 530.0045347175001,12.560711539073305 530.0065860767845,12.531895485895202 530.0065865236086,12.53184708612266 L 530.0090126019451,12.26905545196535 C 530.0090130046755,12.269011828400908 530.007268723358,12.243058352420734 530.0072624869108,12.243015175062167 L 529.9734132749642,12.00866386656726 C 529.9734076131739,12.008624667782795 529.9678695996535,11.985703812849724 529.9678567396594,11.985666353256486 L 529.8981384870359,11.782585591869223 C 529.8981265413242,11.78255079546898 529.8887474888522,11.762804361632499 529.8887280664954,11.762773116448004 L 529.7835560044681,11.593580442415131 C 529.7835375532292,11.593550759489862 529.77043180053,11.57749119872259 529.7704064198201,11.577467170742283 L 529.6298719104283,11.44442280591483 C 529.6298472552512,11.444399464798193 529.6135498327397,11.432584538113536 529.613519981487,11.432568364425208 L 529.4374551104167,11.337174768139946 C 529.4374242218429,11.3371580324213 529.4180452254585,11.329424424103372 529.4180113013355,11.329415294911255 L 529.206470065541,11.272488235124431 C 529.2064329530434,11.27247824792096 529.18387445963,11.268668409468653 529.1838361256613,11.268665654737502 L 528.9370780368187,11.250933282736876 C 528.9370347459259,11.250930171794419 528.9111530517253,11.251013523916649 528.9111097817679,11.251016913628744 L 528.6294621405806,11.273080822947874 C 528.6294127287138,11.273084693809157 528.6001000344662,11.277113610452577 528.6000514105664,11.277123214228897 L 528.2845514659006,11.339438061605788 C 528.2844961150331,11.339448994035154 528.2517714470611,11.347509628749549 528.2517173508785,11.347525654964715 L 527.9044152901963,11.450415309752607 C 527.9043543600102,11.450433360569235 527.8683825165541,11.462600732761443 527.8683231395714,11.462623375497294 L 527.4912697316893,11.606408396795318 C 527.4912035819686,11.60643362223765 527.4521723436856,11.622775452229957 527.4521079541478,11.622804881737432 L 527.047332445472,11.807809220432834 C 527.0472614322248,11.807841677334359 527.0053563472696,11.828394398530806 527.005287209731,11.828430679827262 L 526.5748951243597,12.054287474018999 C 526.5748196169764,12.05432709801798 526.5302221181565,12.079026036800192 526.5301484700256,12.07906901794764 L 526.0764209073874,12.343865028289333 C 526.0763413060606,12.343911483729745 526.0292800616819,12.372578889728771 526.0292022675426,12.372628311900398 L 525.5544067917182,12.674263161045198 C 525.5543234942663,12.674316079439786 525.505034290564,12.706755441534886 525.5049527411809,12.706811015990116 L 525.0113494956429,13.043192854642358 C 525.0112628985822,13.043251869000017 524.959989931671,13.079271382600586 524.9599050472369,13.0793328348436 L 524.4501235490837,13.448390093132556 C 524.4500341137332,13.448454840019975 524.3970806974514,13.487883826608254 524.3969930310752,13.487950949241196 L 523.8749260016897,13.887676763485198 C 523.8748344109828,13.88774689082103 523.8206209601144,13.930392139431016 523.8205312349322,13.930464638344715 L 523.2903028408447,14.358894891772055 C 523.2902098183195,14.35897005497441 523.2351765159606,14.404633733636858 523.2350854806184,14.404711291767821 L 522.7008126179111,14.859888409587489 C 522.7007188858299,14.859968265222193 522.6452950386406,14.908439935695554 522.6452034066843,14.908522192671127 L 522.1107149750808,15.38832644071083 C 522.1106212051806,15.388410616894697 522.0551559345481,15.439410438839161 522.055064201871,15.439496830621664 L 521.5226393158285,15.940922673799447 C 521.5225459079538,15.941010643245619 521.4672606721848,15.994211482591114 521.4671691796054,15.994301442373523 L 520.9385886999182,16.51402648767201 C 520.9384959665008,16.514117667504518 520.883579753102,16.569180147491064 520.883488820254,16.569273123110015 L 520.3605392366816,17.103970564696226 C 520.3604474911406,17.104064371264926 520.3060925422432,17.160649527139395 520.3060024986574,17.160744968583654 L 519.7905269871736,17.70712178016449 C 519.7904365528734,17.70721763574547 519.73686050001,17.765006217400327 519.736771750187,17.76510363466769 L 519.2311100517735,18.320149032953285 C 519.2310213391949,18.32024640933895 519.1784852036341,18.37893757194411 519.1783982100737,18.379036487072177 L 518.6851402153715,18.939890388558393 C 518.6850536788811,18.939988783979707 518.6338345751988,18.999286793431946 518.6337498103389,18.99938671911248 L 518.1554847816601,19.56319297766685 C 518.1554008755147,19.563291891045548 518.1057737139024,19.622898934910058 518.1056916429186,19.622999376193118 L 517.6448859741846,20.186949148584677 C 517.6448051310848,20.187048087141235 517.5969930079406,20.246640220194482 517.596913944274,20.246740586430743 L 517.1542078288977,20.808727507675226 C 517.1541301611582,20.808826101871936 517.108168274402,20.86815990545287 517.1080922234568,20.868259752070813 L 516.6827745430592,21.426655598324192 C 516.6826999259223,21.426753562507745 516.6385108747842,21.48566020831593 516.6384377024524,21.485759256325714 L 516.2298000808661,22.03890198334033 C 516.2297283900554,22.038999025924017 516.1872361077287,22.097306562212907 516.1871656838829,22.09740452811179 L 515.7945604457125,22.643553699943514 C 515.7944915676006,22.643649515587693 515.7536323665394,22.701181572435463 515.7535645918049,22.701278171697126 L 515.3781566777207,23.236346699004372 C 515.3780908166832,23.236440570675832 515.3389964063979,23.29277741307207 515.3389315168994,23.29287195893371 L 514.9838057635039,23.8103003736266 C 514.9837436706498,23.810390844696997 514.9468670263915,23.864665722704277 514.9468057859872,23.86475677296501 L 514.6148662668587,24.3582737588511 C 514.6148091642401,24.35835865718538 514.5808826486852,24.40927501780979 514.5808262846967,24.409360408307034 L 514.2750896986776,24.872546208063294 C 514.2750379048488,24.872624674845053 514.2442554679025,24.91967230237125 514.244204310437,24.91975118551433 L 513.9665796658643,25.347839332092203 C 513.966533089503,25.347911151322105 513.9388394367436,25.390961340790447 513.9387933921927,25.39103350212733 L 513.6887857097545,25.7828472611959 C 513.6887442222277,25.78291228073311 513.6640606314733,25.821873758295467 513.6640195651847,25.82193904470328 L 513.4408995642432,26.176650997305217 C 513.4408630380984,26.17670906587836 513.4191111401233,26.211490817654305 513.4190749174453,26.211549076010183 L 513.2221126160554,26.528331282147956 C 513.222080926178,26.528382250222453 513.2031830507254,26.558893781634943 513.2031515370059,26.558944858816005 L 513.0316158472767,26.83696851389391 C 513.0315888722384,26.83701223481718 513.0154684513114,26.86316391300536 513.0154415118984,26.863207655888736 L 512.8685995149912,27.101642411024468 C 512.8685771394669,27.10167874329155 512.8551594299133,27.123382474533557 512.8551369301548,27.12341872999638 L 512.7322524847498,27.321431185936603 C 512.732234604156,27.321459998210443 512.7214480745628,27.338630728987503 512.7214298798068,27.3386593439069 L 512.617719770537,27.501764384459705" fill="none" stroke="#000000" stroke-linecap="round" stroke-width="2.94" data-llp-id="test-2" data-llp-duration="110.9646784496813" data-llp-delay="0.0" fill-opacity="0" style=""/><path d="M 515.0677097905688,24.8063900487099 L 515.1280062626441,24.791690793003237 C 515.1280168409726,24.791688214186447 515.1343541698827,24.79019483454935 515.1343647866343,24.790192418785416 L 515.2055791302953,24.773988117256035 C 515.2055916240397,24.773985274396114 515.2130793020802,24.7723609293796 515.2130918507372,24.77235833964749 L 515.2984071862938,24.754751366681273 C 515.2984221538966,24.754748277738646 515.3073926113287,24.75300301945575 515.3074076452559,24.75300027141415 L 515.4073742029324,24.734727450462273 C 515.4073917409249,24.73472424470421 515.4179009230462,24.732933130823113 515.4179185328198,24.732930346233747 L 515.5332184375153,24.714698261383877 C 515.5332386655687,24.7146950627725 515.5453566211603,24.712930488049945 515.5453769213864,24.712927785073624 L 515.6766854496137,24.695444046671874 C 515.6767084861976,24.695440979349346 515.6905047554121,24.693775657230162 515.6905278601968,24.693773154913494 L 515.8385204308631,24.677745120852673 C 515.8385463944719,24.677742308916873 515.8540907211498,24.676249069683678 515.8541167452555,24.67624688750833 L 516.0194685902367,24.66238179169145 C 516.0194975993323,24.662379359218498 516.0368598760814,24.66113112282661 516.0368889348009,24.66112938059591 L 516.2202751348199,24.65013436525251 C 516.2203073078374,24.65013243630245 516.2395574171558,24.649198281975817 516.2395896257747,24.649197086663914 L 516.4411261533567,24.64171775294005 C 516.4411615106422,24.64171644077624 516.4623108229597,24.64113885527498 516.4623461991602,24.641138235714706 L 516.6780446694096,24.6373606055172 C 516.6780825112465,24.63735994277506 516.7007136635629,24.637156479336603 516.7007515111986,24.637156461599016 L 516.9249749275143,24.637051377559903 C 516.9250142649557,24.637051359124108 516.9485366312961,24.63722892617494 516.9485759639762,24.637229538480472 L 517.1757613134007,24.64076621195041 C 517.1758011704795,24.64076683241944 517.1996311162909,24.641331475060564 517.1996709580275,24.64133274302846 L 517.4242579233985,24.64848024930336 C 517.4242973246205,24.64848150325183 517.4478513871713,24.649427311303114 517.4478907620784,24.649429220592275 L 517.665519060837,24.659982016373576 C 517.6655572412403,24.659983867741257 517.6883792219661,24.66126706713574 517.6884173692575,24.66126950740483 L 517.8973429156348,24.67463440262061 C 517.8973795692394,24.67463674733907 517.9192874502447,24.676193347053655 517.9193240671452,24.67619620835431 L 518.1181186779444,24.69173032357034 C 518.1181532589212,24.691733025780803 518.1388213961479,24.693482304690768 518.138855939376,24.693485452911442 L 518.3261071799499,24.71055126467118 C 518.3261393304803,24.71055419482479 518.3453543252631,24.712419943842853 518.3453864389294,24.712423253652513 L 518.5196028929495,24.730378951946008 C 518.5196323310951,24.730381986001913 518.5372260261157,24.73229140527109 518.5372554297595,24.73229475723281 L 518.6969229666358,24.750496565000958 C 518.6969494107441,24.750499579581028 518.7127537340849,24.75238006739926 518.7127801472453,24.752383342076108 L 518.8563845744048,24.770187273311464 C 518.8564077430296,24.77019014573407 518.8702546845493,24.771969308651148 518.8702778267658,24.77197238660619 L 518.9963049131001,24.78873420834889 C 518.9963245249238,24.788736816755573 519.0080461128879,24.79034250745052 519.0080657036995,24.790345269246835 L 519.119733329635,24.806087508226312" fill="none" stroke="#000000" stroke-linecap="round" stroke-width="2.94" data-llp-id="test-3" data-llp-duration="28.39994523186614" data-llp-delay="110.9646784496813" fill-opacity="0" style=""/><path d="M 522.6769380880917,27.9785262329426 L 522.6033791152473,28.093524582031623 C 522.6033662101644,28.093544757180585 522.5956588287793,28.105615790756904 522.595645956667,28.105635986957694 L 522.5169737755646,28.229071762501768 C 522.5169599734276,28.229093417900987 522.5087144146994,28.242048514290747 522.508700639717,28.242070186973102 L 522.4228319140213,28.377170585242084 C 522.4228168493325,28.37719428706634 522.4138153692022,28.391372551463984 522.4138003286062,28.391396268584202 L 522.3221663378687,28.535891498322115 C 522.32215026173,28.53591684836242 522.3125432773343,28.551080320111364 522.3125272230903,28.551105684023394 L 522.2163840547772,28.703001150643278 C 522.2163671875547,28.703027798970755 522.2062866893233,28.718967357090225 522.2062698425049,28.718994018321677 L 522.1068823883967,28.876281397746922 C 522.1068649520013,28.876308992024015 522.0964438150634,28.892814049182352 522.096426398158,28.89284165576532 L 521.9950591469752,29.05351333513714 C 521.9950413632469,29.053541523151065 521.9844123992807,29.070401552388898 521.9843946346346,29.070429752432624 L 521.8823121154248,29.232478096907638 C 521.882294206211,29.232506526441753 521.8715902225242,29.24951099239184 521.8715723324616,29.2495394339813 L 521.770039080455,29.410956815631092 C 521.7700212676037,29.41098513446998 521.7593750744871,29.42792350334346 521.7593572813413,29.427951834567697 L 521.6596378292337,29.586730624305098 C 521.6596203345929,29.586758480233122 521.6491647558468,29.603420226109808 521.6491472819966,29.60344809508438 L 521.5525061494795,29.757580656264082 C 521.5524891948949,29.75760769706429 521.5423570810514,29.77378231000838 521.5423401489677,29.773809364903638 L 521.4499966560475,29.921360225739157 C 521.4499806139384,29.921385858590277 521.4403948380843,29.936718933181233 521.4403788207425,29.936744581516034 L 521.353517033018,30.07583508875522 C 521.3535022428138,30.075858772092353 521.3446660059229,30.090026587525937 521.3446512434954,30.09005028818691 L 521.2644973695423,30.218735071583964 C 521.2644840629986,30.21875643486443 521.256536316388,30.23153762533688 521.2565230418393,30.231559008512843 L 521.1808581143955,30.353443111497732" fill="none" stroke="#000000" stroke-linecap="round" stroke-width="2.94" data-llp-id="test-4" data-llp-duration="20.26597392180515" data-llp-delay="139.36462368154744" fill-opacity="0" style=""/><path d="M 526.1684903229846,24.59914173814778 L 526.195385801085,24.567293744984987" fill="none" stroke="#000000" stroke-linecap="round" stroke-width="2.94" data-llp-id="test-5" data-llp-duration="0.3445536268092973" data-llp-delay="159.63059760335258" fill-opacity="0" style=""/></svg>