<svg xmlns="http://www.w3.org/2000/svg" xmlns:ev="http://www.w3.org/2001/xml-events" xmlns:xlink="http://www.w3.org/1999/xlink" baseProfile="full" height="100%" version="1.1" viewBox="463,-9,101,84" width="100%" data-llp-composed="true" id="test" class="lazy-line-painter"><defs/><path d="M0,0 M490.79037236255147,23.67079683580074 " fill="none" stroke="#000000" stroke-linecap="round" stroke-width="2.94" data-llp-id="test-1" data-llp-duration="0.0" data-llp-delay="0" fill-opacity="0" style=""/><path d="M 490.79037236255147,23.67079683580074 L 490.8064249840403,23.546225429508574 C 490.80642780028967,23.546203574875893 490.80810968861783,23.533134217708074 490.80811249741305,23.533112362116118 L 490.8272816468693,23.3839547767114 C 490.827285009878,23.38392860871396 490.82930065194705,23.36828073400129 490.82930403021624,23.368254567969586 L 490.8523571775414,23.18969881721379 C 490.85236122195323,23.189667491643483 490.8547902360306,23.170936156472713 490.8547943154117,23.1709048354371 L 490.8818232071279,22.963380002262998 C 490.8818279490387,22.96334359439753 490.88467944263175,22.94157376443975 490.8846842374888,22.941537363509372 L 490.915814043202,22.70521042395203 C 490.9158195045714,22.70516896308544 490.9191062783691,22.680378132461747 490.9191118095542,22.680336680851333 L 490.95446584976776,22.415387690857564 C 490.954472052231,22.415341208578617 490.95820681804554,22.387548258323402 490.95821310643794,22.387501787591464 L 490.9979146939155,22.094110135129483 C 490.9979216591063,22.094058662909752 491.0021171950794,22.063282413195836 491.0021242617815,22.063230954814518 L 491.04629664567614,21.74157605246548 C 491.04630439521713,21.741519621780856 491.05097272371256,21.707778790808202 491.0509805873103,21.707722375904286 L 491.0996887569058,21.358280962928085 C 491.0996973021987,21.358219657417035 491.1048372425841,21.32156314808082 491.10484588772727,21.321501856570677 L 491.15755564744495,20.947805237262738 C 491.1575648947712,20.947739676452336 491.1631165585356,20.90853739376694 491.16312587864667,20.908471843264017 L 491.2189698399171,20.51570831094581 C 491.2189796371033,20.51563940506295 491.22485287708196,20.474435757193223 491.22486272283885,20.47436685823371 L 491.2829810367927,20.067664620219585 C 491.28299123298814,20.067593268949757 491.289095522754,20.024926206047006 491.2891057422434,20.0248548581098 L 491.3486383680579,19.609224499296047 C 491.3486488123782,19.60915158168924 491.35487800342736,19.565544494037233 491.3548883925219,19.565471568541525 L 491.41497306659016,19.143711557146197 C 491.4149836077611,19.143637564161743 491.4212331927554,19.099382128811495 491.4212435532065,19.099308110306485 L 491.48100132563906,18.67237873168705 C 491.48101180945883,18.672303831796064 491.4871891275828,18.627501011383956 491.4871993036899,18.627426069066207 L 491.5457385888355,18.196311335271968 C 491.5457488588855,18.196235701108144 491.55175986096805,18.150989135844945 491.55176969460393,18.15091344370354 L 491.6081917461278,17.716617730597374 C 491.6082016447333,17.716541538367004 491.6139415465871,17.670955987375592 491.61395084497775,17.6708797195692 L 491.66706153488565,17.23525209606976 C 491.6670708525506,17.2351756701709 491.67239901251423,17.18944457692882 491.6724075147823,17.18936805602754 L 491.720635586187,16.755312642735944 C 491.72064404725216,16.755236492663435 491.7253904034665,16.709666111399706 491.72539781650244,16.70958985217033 L 491.76715469741043,16.28002933130581 C 491.767162023179,16.279953969810922 491.77115398571857,16.2348533780721 491.7711600109953,16.234777901467528 L 491.8048599891389,15.812629666616774 C 491.8048659014158,15.81255560552294 491.8079361244972,15.768234837502646 491.8079404805249,15.768160668603102 L 491.8321521980658,15.355914340517696 C 491.83215644573556,15.355842016600489 491.83416066825606,15.31256749510077 491.8341631236717,15.312495088176842 L 491.8477501462828,14.911831954393827 C 491.84775252997093,14.911761662615971 491.84856606892396,14.869715339900644 491.84856640610184,14.869645008525607 L 491.85042391044306,14.482191264351709 C 491.85042423632103,14.482123290010627 491.8499232467392,14.441483212297035 491.8499212453108,14.441415266645764 L 491.8389453214546,14.068798241549143 C 491.8389433958539,14.06873287014123 491.8370114329701,14.029679376985314 491.83700689715647,14.02961413470374 L 491.8122613442521,13.673678804322515 C 491.812257002927,13.673616359527712 491.8088084333703,13.636353264173536 491.80880124101793,13.63629108323137 L 491.76983276662554,13.299392065254414 C 491.7698259835825,13.299333422965082 491.76484222904145,13.264397645478688 491.76483234400916,13.26433944570285 L 491.71126063316115,12.948927066331542 C 491.71125138991664,12.948872645188509 491.704707502624,12.916534483858806 491.7046948599578,12.91648075061612 L 491.6361493934434,12.625152154789994 C 491.6361376676743,12.625102318498394 491.62801738402385,12.595605314800551 491.6280019516537,12.595556498905871 L 491.54430304237536,12.330798908419244 C 491.5442888237065,12.330753931721945 491.5346267729185,12.30428098119334 491.5346086770362,12.304237419594555 L 491.4364364051827,12.0679106655923 C 491.4364198243257,12.067870751062067 491.425306559651,12.044573285301379 491.42528597239874,12.044535281885926 L 491.3135785458294,11.838326911618774 C 491.3135597461246,11.838292207959379 491.3010895983035,11.818305550670821 491.3010666918283,11.818273409322563 L 491.1767819936723,11.64388264308075 C 491.1767610529702,11.64385326001798 491.1630128003313,11.627300213075324 491.16298776025536,11.627274234777083 L 491.0271789263793,11.486376803059185 C 491.02715586104927,11.48635287349831 491.01221967648553,11.473356758724575 491.012192788021,11.473337223018648 L 490.8664929564213,11.367479595485177 C 490.8664677417005,11.367461275830996 490.8504348458108,11.358149568105334 490.85040643880626,11.358136744924314 L 490.6965825093167,11.288699219695573 C 490.69655552266244,11.288687037673602 490.67980100856386,11.283330499505043 490.679771960054,11.28332476668364 L 490.5193565188761,11.251666238334185 C 490.51932837581626,11.251660684206403 490.50234563566886,11.250395322734553 490.5023169802667,11.250396644884168 L 490.3368510421929,11.258031181813513 C 490.33682201308096,11.258032521205957 490.3197844313018,11.260808613047002 490.3197564785349,11.260816558242656 L 490.15042597353806,11.308946462386634 C 490.1503962664319,11.308954906229467 490.1333198479476,11.315737559717604 490.1332924432862,11.315751800334597 L 489.96103668862105,11.405263150044794 C 489.9610064683132,11.405278853790358 489.9438472242203,11.4161146953908 489.9438200557519,11.416135231918147 L 489.76961612585103,11.547815226483618 C 489.7695855637581,11.547838328237049 489.7523335532176,11.562831583165082 489.75230641627866,11.562858626076961 L 489.57713159863084,11.737426478662497 C 489.5771008662067,11.737457104601546 489.5598036409805,11.756740845557308 489.559776523153,11.756774713735167 L 489.3852612331312,11.974731513325699 C 489.38523061641365,11.974769751360714 489.3680447163297,11.99845100239542 489.3680178551205,11.998491965868881 L 489.19642919741705,12.260165496112947 C 489.19639909414377,12.260211403749832 489.1795515847837,12.28835513114531 489.17952534187185,12.288403349687007 L 489.01312581113814,12.594144677123072 C 489.013096618238,12.594198315952449 488.99681990351894,12.626862651370983 488.9967946592461,12.626918257810566 L 488.83783148402705,12.977071983893389 C 488.8378035957507,12.977133414371648 488.8222997320786,13.014357531079378 488.8222757679681,13.014420595974721 L 488.6724933090612,13.408594003403845 C 488.67246703143684,13.408663156633219 488.65787473194746,13.450408887117385 488.6578522058946,13.450479351715718 L 488.5182427192831,13.88719706972771 C 488.5182182263907,13.88727368687122 488.50464698554777,13.933407125017196 488.5046260896748,13.933484800308957 L 488.37610836223524,14.411217986575044 C 488.37608581526547,14.41130179941474 488.3636415022337,14.461678481186278 488.36362242942744,14.461763152232106 L 488.24711342518196,14.978988519216344 C 488.2470929850058,14.979079260508797 488.2358618634155,15.03354712243256 488.2358447413121,15.033638547902394 L 488.13193977092243,15.58845126708504 C 488.13192154198026,15.588548602649809 488.1219342471792,15.646911611166447 488.12191907379764,15.647009469610095 L 488.0304912467026,16.236659497255367 C 488.03047520673294,16.236762944628637 488.0217244772646,16.298743235340588 488.02171125058055,16.2988470799095 L 487.94253097161874,16.920502658034696 C 487.9425170803417,16.920611720416822 487.9349892473436,16.985920833467603 487.9349779619216,16.986030196212734 L 487.8678165925879,17.636865559800484 C 487.8678048098915,17.63697974144322 487.8614772279177,17.70532687983459 487.8614678481326,17.705441283938985 L 487.80596180074616,18.382441827416976 C 487.8059520628431,18.382560599442147 487.8007689093484,18.45363295252158 487.8007613122899,18.453751880673934 L 487.7560774485197,19.153255429149485 C 487.75606960924534,19.15337814907027 487.7519463966841,19.226796374109863 487.7519404459499,19.226919200092222 L 487.71714310655244,19.945152822477787 C 487.71713700175604,19.945278828376452 487.7139828486933,20.02065113376568 487.7139784044828,20.02077720915594 L 487.68813289867893,20.75397430254605 C 487.6881283643797,20.754102933615066 487.6858479204487,20.831037090360546 487.6858448278452,20.83116576416359 L 487.66795315994716,21.57558351438973 C 487.66795002105806,21.575714113995033 487.666425494661,21.653819558923086 487.6664235347996,21.653950181541624 L 487.65514023047365,22.40597007774988 C 487.65513825094655,22.406102011065006 487.6542261670973,22.485001274081952 487.65422509617673,22.485133217900664 L 487.648088711885,23.241172452207 C 487.64808763532636,23.241305090669158 487.64763730136036,23.320623989344103 487.6476368717853,23.32075663147952 L 487.64518695250894,24.077231079049128 C 487.6451865226985,24.07736379386449 487.6450447483664,24.156727459336967 487.6450447040151,24.156860174840908 L 487.64479297538185,24.91012631590086 C 487.6447929312189,24.910258467855435 487.6447907732788,24.989285337351664 487.64479081022455,24.98941748930845 L 487.6449993402972,25.735313137261283 C 487.64499937688146,25.735443996146888 487.64494652787624,25.81369755927224 487.6449463145395,25.813828417989058 L 487.64374949017,26.547949013313612 C 487.64374928020084,26.548077806400514 487.6434468964213,26.625095378132794 487.6434460950735,26.62522416889784 L 487.6389789352655,27.343175760879827 C 487.6389781515533,27.34330171729947 487.63823035255257,27.418620884842685 487.6382286352648,27.41874683199342 L 487.62871839808673,28.116234641804784 C 487.62871672962405,28.116357008087206 487.6274053998286,28.189526424885464 487.6274026825729,28.189648772371598 L 487.6124290742037,28.863852282578993 C 487.6124264472549,28.863970563896576 487.61056159618164,28.934695041363504 487.61055798617036,28.93481329675986 L 487.5907408367932,29.58397604891906 C 487.5907373601003,29.584089937121192 487.58838425900177,29.652185612365976 487.5883798657913,29.6522994688971 L 487.56436649518093,30.274641398370186 C 487.56436228230893,30.27475058116483 487.56158774458214,30.340031044190052 487.56158267806376,30.340140190703185 L 487.5340191565325,30.933933019383975 C 487.5340143353752,30.93403688015587 487.53089570486475,30.99613379052756 487.53089009581964,30.996237611730155 L 487.5004956381218,31.55882698295228 C 487.50049038112405,31.558924287897536 487.4971313748567,31.61710021275464 487.49712539771974,31.617197476119944 L 487.4647144546389,32.14460673940891 C 487.4647089255137,32.14469671247204 487.46120442236173,32.19848769882631 487.46119823074054,32.19857762872758 L 487.4275970065417,32.68661697953302 C 487.4275913698202,32.686698849821035 487.42403642610674,32.73564390450853 487.4240301733844,32.73572573005559 L 487.39007146562943,33.18012253542929 C 487.3900658595972,33.180195898138884 487.3865424878813,33.22405306363005 487.3865363100616,33.22412638040372 L 487.3529676189531,33.62251096647441 C 487.3529621360166,33.6225760365537 487.34952982279225,33.66147439792292 487.3495238264203,33.66153942269771 L 487.3169228789758,34.01506473589394 C 487.3169176177339,34.01512178890418 487.31363684782673,34.04922654600815 487.313631136594,34.049283555730696 L 487.2825591153052,34.35944554737503 C 487.282554175288,34.359494858797945 487.2794857119388,34.38897118771589 487.2794803895368,34.38902045933283 L 487.2504987504623,34.65731515394841 C 487.2504942302879,34.65735699902171 487.2476985640826,34.682370002876304 487.2476937342028,34.68241181333429 L 487.2213643604062,34.910335327760706 C 487.2213603572694,34.91036998141439 487.21889755321234,34.93108467131957 487.2188933195463,34.93111929756523 L 487.1957788148015,35.12016786715159 C 487.1957754234948,35.12019560392062 487.19370482828225,35.13677687287584 487.19370129452136,35.13680459185582 L 487.1743656067237,35.28847459926829 C 487.17436291755916,35.28849569319658 487.17274253824627,35.30110828737528 487.17273980808204,35.301129376036215 L 487.157177871998,35.42133474337754" fill="none" stroke="#000000" stroke-linecap="round" stroke-width="2.94" data-llp-id="test-2" data-llp-duration="354.9627713792029" data-llp-delay="0.0" fill-opacity="0" style=""/><path d="M 483.339905693534,29.75977940584593 L 483.4721074069434,29.72735937438882 C 483.4721306002265,29.727353686664 483.4859957759741,29.723934553970597 483.4860189545163,29.723928806469015 L 483.62852346294636,29.68859246473445 C 483.62854846373733,29.688586265376255 483.6434952926739,29.684864414776523 483.6435202812774,29.684858166473855 L 483.79995284472955,29.645742815171683 C 483.7999802890389,29.645735952829348 483.81638874513584,29.641619354084458 483.81641617860606,29.641612448538012 L 483.98413112047933,29.599395284185285 C 483.9841605441533,29.599387877665222 484.00175295083324,29.5949470905867 484.0017823646397,29.594939644976066 L 484.1784473190494,29.5502198817419 C 484.178478312901,29.550212036169402 484.19700988316004,29.54550953471047 484.1970408678042,29.545501652853336 L 484.3803077848078,29.49888231304569 C 484.3803399368985,29.498874134214145 484.3995642548528,29.493972868291316 484.39959639813986,29.49396465492914 L 484.5871179962037,29.446048497585537 C 484.5871508947297,29.446040091242143 484.60682163405994,29.441003025592146 484.6068545239598,29.44099458556213 L 484.7962834745994,29.392384342430276 C 484.79631670774864,29.392375814317443 484.8161875406855,29.387265929910495 484.8162207651715,29.38725736810892 L 485.0052097389372,29.338555754098643 C 485.0052428948975,29.33854720995583 485.0250674921921,29.33342748551232 485.0251006392328,29.333418906830904 L 485.21130230803686,29.285228638154614 C 485.2113349749963,29.285220183721513 485.23086700100464,29.28015357791831 485.2308996585469,29.280145087181502 L 485.4119667004655,29.23306889922177 C 485.41199846661317,29.233060640241426 485.43099157326856,29.228110069778555 485.43102332921666,29.228101771667053 L 485.60466574798676,29.182727464246277 C 485.60469601046896,29.182719556390694 485.6227896047216,29.177977799118153 485.62281985593256,29.17796984825376 L 485.78683935443524,29.1348609362719 C 485.7868673957817,29.13485356622171 485.80363233480807,29.130431920800575 485.8036603634918,29.130424502738986 L 485.95580735196535,29.09015733424374 C 485.9558327403282,29.09015061496854 485.9710106099967,29.086116043604015 485.97103598373974,29.0861092693295 L 486.11566631893635,29.04749590460719" fill="none" stroke="#000000" stroke-linecap="round" stroke-width="2.94" data-llp-id="test-3" data-llp-duration="27.282830403846525" data-llp-delay="354.9627713792029" fill-opacity="0" style=""/><path d="M 492.97090998426665,27.041859513093897 L 492.9681109695684,27.115537395745886 C 492.96811047851315,27.11555032169021 492.96788363772947,27.123281996552056 492.9678833701198,27.123294929052083 L 492.9658612544198,27.221015674365653 C 492.96586089966263,27.22103281835606 492.96569655131555,27.23128569077121 492.96569635641265,27.231302837323998 L 492.96431929449847,27.352449658664167 C 492.96431905290865,27.35247091249247 492.9642122896769,27.365181018556896 492.964212174199,27.365202273444527 L 492.96344339630514,27.50670375631135 C 492.9634432614318,27.506728581132904 492.9633937388553,27.52157392827523 492.96339370810125,27.521598753444117 L 492.96319684901914,27.68050669900191 C 492.96319681448244,27.68053457758885 492.9632028364067,27.697205962943638 492.9632028910836,27.697233841498353 L 492.9635428942368,27.870594020837817 C 492.9635429538865,27.870624434904368 492.9636022311859,27.888811969761843 492.9636023697881,27.88884238357107 L 492.96444480923844,28.073700920010435 C 492.9644449570348,28.073733351332617 492.96455486893746,28.0931271599811 492.9645550887394,28.0931595908952 L 492.96586588619834,28.286562612974603 C 492.9658661161628,28.286596543329352 492.96602385249327,28.3068867382985 492.96602415007504,28.30692066812759 L 492.9677694251716,28.505914315856344 C 492.9677697313602,28.50594922702261 492.96797237739383,28.526825914729045 492.9679727489511,28.526860825260794 L 492.9701187276638,28.728491244754593 C 492.9701191041513,28.7285266185124 492.97036369511636,28.74967990076738 492.9703641366589,28.749715273772967 L 492.9728770243787,28.951028609083334 C 492.9728774652362,28.951063927212335 492.9731610301385,28.972183900739093 492.9731615376586,28.97221921797306 L 492.9760074710701,29.170261611138866 C 492.97600797035665,29.170296355418365 492.97632758355815,29.191073110900792 492.976328153212,29.19110785409782 L 492.97947321913125,29.382925452519995 C 492.97947377089724,29.382959104730244 492.9798266161937,29.403082725121774 492.9798272445123,29.403116375989757 L 492.98324036263637,29.585912775394007 C 492.98324095111434,29.585944292514295 492.9836181315886,29.604791024703857 492.9836188045838,29.6048225401327 L 492.98727060218613,29.775831144527206 C 492.987271216436,29.775859908993873 492.9876672136812,29.793060399873024 492.98766792383685,29.793089162131704 L 492.9915271656059,29.949393643320228 C 492.991527794424,29.949419111297882 492.99193742212583,29.964648058311667 492.99193816330006,29.96467352326717 L 492.99597400796756,30.10333539200858 C 492.99597463746255,30.103357019933984 492.99639190569115,30.116289201900805 492.9963926717421,30.11631082542011 L 493.00057588205317,30.2343913893889 C 493.00057649298697,30.234408634375757 493.000993813146,30.244719032521466 493.0009945979318,30.244736270471552 L 493.00546787700483,30.34299258594906" fill="none" stroke="#000000" stroke-linecap="round" stroke-width="2.94" data-llp-id="test-4" data-llp-duration="20.170333031048415" data-llp-delay="382.2456017830494" fill-opacity="0" style=""/><path d="M 495.1946771733902,20.114917001601427 L 495.20017685715715,20.111153569259407 C 495.2001778220139,20.11115290900812 495.2007606443224,20.110766893095747 495.200761628704,20.110766262323917 L 495.20651692979106,20.107078382060617 C 495.206517939493,20.107077735064077 495.20712649167984,20.1066984531182 495.2071275172695,20.106697831613243 L 495.2133161257418,20.102947549203865 C 495.2133172114626,20.102946891259585 495.2139706438309,20.10256049469948 495.21397174350267,20.102559860347572 L 495.22049317578325,20.098797935039624 C 495.22049431989416,20.09879727505273 495.22118224663956,20.09840924839215 495.221183403287,20.09840861063102 L 495.22795142026246,20.094676809479676 C 495.2279526076339,20.09467615477772 495.2286661076959,20.094291038419023 495.22866730661235,20.0942904051064 L 495.235594985232,20.090630945462728 C 495.2355962006142,20.090630303452265 495.23632625472027,20.090252675005377 495.2363274809906,20.09025205404445 L 495.2433279576205,20.086707140308885 C 495.2433291857743,20.086706518394195 495.2440667644796,20.08634095433687 495.2440680031442,20.086340353629293 L 495.25105442681706,20.082952190633936 C 495.25105565250544,20.082951596219377 495.2517917176209,20.08260268338846 495.2517929536888,20.082602110870475 L 495.25867848240546,20.079412893594924 C 495.25867969039297,20.07941233408312 495.2594051989163,20.079084681087597 495.25940641737867,20.079084144769983 L 495.26610421417644,20.076136046948523 C 495.2661053892285,20.07613552973838 495.26681129560035,20.075833783190248 495.26681248143916,20.07583329121461 L 495.27324099900994,20.07316625586235 C 495.2732421082693,20.07316579565767 495.27390877307124,20.072898905556773 495.2739098934601,20.072898473152424 L 495.27998800417197,20.070552679028694 C 495.2799890311906,20.070552282659765 495.2806066565844,20.070324664938052 495.28060769520255,20.070324300043698 L 495.2862491883862,20.068342292501246 C 495.2862501171539,20.06834196620031 495.28680913656876,20.068157816330128 495.28681007743126,20.06815752674521 L 495.2919285585322,20.066582126575007 C 495.29192937331595,20.06658187579545 495.29242030308023,20.066445156371532 495.2924211302021,20.066444949895487 L 495.2971357247102,20.065268036451172" fill="none" stroke="#000000" stroke-linecap="round" stroke-width="2.94" data-llp-id="test-5" data-llp-duration="0.7493021682334098" data-llp-delay="402.4159348140978" fill-opacity="0" style=""/><path d="M 499.61040152629994,11.513875873349763 L 499.60758515616504,11.540076053151385 C 499.60758466206505,11.540080649674156 499.6073920054403,11.54283655776942 499.60739185520384,11.542841178330578 L 499.6059417933313,11.587438190056018 C 499.6059415389344,11.587446014093162 499.6058346152662,11.59212582115855 499.6058345120588,11.592133648650053 L 499.6049497451594,11.659236433082905 C 499.6049495899371,11.659248205501225 499.6048637566133,11.666288196876325 499.6048636247676,11.66629996957966 L 499.6038209254529,11.75940417249695 C 499.6038207425232,11.759420506567636 499.60368965457104,11.769187989659935 499.6036893990795,11.769204322756782 L 499.6017710519079,11.89184067338137 C 499.60177071535577,11.891862188530602 499.6015251361845,11.904727401744932 499.6015246514016,11.904748914064644 L 499.598015972753,12.060447102031668 C 499.5980153571953,12.060474417503242 499.5975844938934,12.076807413904264 499.5975836684367,12.076834723838713 L 499.5917716097319,12.269124563465951 C 499.59177059007243,12.269158298525534 499.59108269470875,12.289329199353652 499.5910814137148,12.289362925500852 L 499.58225391842944,12.521774172356647 C 499.5822523697461,12.521814946259605 499.5812353075425,12.546193945923822 499.58123345468005,12.546234707136799 L 499.5686866605915,12.822252253161356 C 499.5686844593995,12.822300677292239 499.56727522705955,12.851253784893068 499.5672727150999,12.851302193897975 L 499.55059675642207,13.172671429085579 C 499.55059383081533,13.172727809653155 499.548760350615,13.206438822234173 499.548757144181,13.206495187528072 L 499.52792006363376,13.572786264288052 C 499.5279164080056,13.572850525880465 499.5256536601315,13.611274442400473 499.5256497480411,13.611338688890067 L 499.50063893666646,14.022079913433817 C 499.50063454880484,14.022151973297772 499.4979393821123,14.065239316704092 499.4979347560385,14.065311361667582 L 499.4687366862516,14.520032572568825 C 499.4687315637832,14.52011234821986 499.46559228390845,14.567813182957533 499.46558690711305,14.567892941870838 L 499.43205698506455,15.065272875672377 C 499.4320511026221,15.065360135309888 499.42842459048376,15.117533835220318 499.4284183441231,15.117621069562443 L 499.39002187046185,15.653851891762114 C 499.3900151342384,15.653945967344956 499.3858401337181,15.710192273880889 499.3858329067291,15.710286313035624 L 499.3419565138361,16.28121549313768 C 499.3419488162233,16.28131565615173 499.33716041058676,16.341198326730254 499.33715209346497,16.34129844020643 L 499.2871819695234,16.942790512079846 C 499.28717320283494,16.942896037004736 499.28171139471397,17.005980952923377 499.2817018944856,17.00608641433935 L 499.2251487342961,17.633879359067762 C 499.22513881268907,17.633989498180874 499.2189916926894,17.699832708882717 499.2189810553667,17.699942781176638 L 499.1562709434088,18.34885097554551 C 499.1562599416348,18.348964819088383 499.14948709818316,18.417023973632194 499.1494754483069,18.41713775267977 L 499.08144012259237,19.08160785982059 C 499.0814281865703,19.081724433523597 499.0741132589527,19.151416910421005 499.0741007303339,19.151533421925013 L 499.001571305848,19.826030145169234 C 499.0015585813876,19.8261484779277 498.9937867964015,19.896893609538484 498.99377352826997,19.89701188257136 L 498.9176028144068,20.57600284307382 C 498.91758945112366,20.57612196429496 498.9094744617625,20.647342354672627 498.909460684613,20.64746142873703 L 498.8310099713013,21.325500473111074 C 498.8309962080183,21.325619427329386 498.8227061537172,21.39674710210847 498.82269219106615,21.396866033090088 L 498.7438307480427,22.068591536856623 C 498.7438169127018,22.068709383436232 498.7355491170096,22.13918231123506 498.73553530085985,22.13930016006615 L 498.65815321795804,22.79935293865147 C 498.658139642154,22.799468737384554 498.65009411019497,22.86872483686462 498.65008077786536,22.868840663882303 L 498.57606509804134,23.511865228782813 C 498.57605211283436,23.511978040109987 498.56841821315044,23.579454063192525 498.56840566692034,23.57956692418335 L 498.49932866387104,24.20095669271588 C 498.49931654509857,24.201065708464746 498.4922358596335,24.26627518814696 498.4922242971837,24.266384264303387 L 498.42896348291004,24.863164927311935 C 498.4289523845216,24.863269625673865 498.42251689243517,24.925899934959563 498.4225064674387,24.926004702514973 L 498.3658421798558,25.49546090579119 C 498.36583227972415,25.495560398639636 498.3601519986001,25.555080026282692 498.360142901136,25.55517959573406 L 498.31084837840996,26.094695721782507 C 498.310839841668,26.09478915427162 498.30600957585204,26.150685521377877 498.3060019578589,26.15077903326036 L 498.2647051843654,26.657702435440076 C 498.2646980984063,26.657789416533262 498.26073032947585,26.709824670318266 498.2607241453047,26.709911720174194 L 498.2271828148821,27.18204742613756 C 498.22717712006624,27.18212758771361 498.2240240370721,27.230080807438053 498.22401918645994,27.23016102452329 L 498.19769441184934,27.665507450607493 C 498.1976899994661,27.665580420473365 498.1952891069196,27.70922947551722 498.19528548956185,27.709302489113036 L 498.17563906463414,28.105850533037017 C 498.1756358229205,28.105915964544437 498.1739236491416,28.145053909066817 498.1739211645215,28.145119373694925 L 498.1604183627036,28.500890425574553 C 498.16041616426145,28.500948350002343 498.1593236121905,28.535594162234947 498.15932215661235,28.535652110088872 L 498.15140772476303,28.850732638654787 C 498.15140645021717,28.850783379450824 498.1508660899571,28.881130325193624 498.150865557278,28.8811810791994 L 498.1479674750913,29.15731219291344 C 498.1479670144619,29.157356081977508 498.14791420648754,29.18360219026612 498.14791449050165,29.18364608082844 L 498.14946082509283,29.422611293160543 C 498.1494610669125,29.422648663136744 498.14983072695884,29.444992185557986 498.14983172146043,29.44502954308152 L 498.15525132717323,29.648611976177126 C 498.15525215735056,29.648643161013975 498.15597841654835,29.66728273917474 498.1559800153316,29.66731389406418 L 498.16470302550965,29.83729592627064 C 498.1647043256899,29.83732126239598 498.1657200404332,29.85245627922192 498.1657221372922,29.852481561881948 L 498.1771808682201,29.99064401982257 C 498.17718251277205,29.99066384883666 498.17841836379057,30.002495233805053 498.1784208525196,30.002514974640356 L 498.192051555734,30.110635006975016 C 498.1920534059089,30.11064968273799 498.19343615179764,30.119382031029666 498.19343892619094,30.119396560444926 L 498.20925296796815,30.202214227430424" fill="none" stroke="#000000" stroke-linecap="round" stroke-width="2.94" data-llp-id="test-6" data-llp-duration="115.94849753819018" data-llp-delay="403.1652369823312" fill-opacity="0" style=""/><path d="M 504.6983318883126,12.664818151414066 L 504.6681551811767,12.853524663095143 C 504.66814988701753,12.853557769500702 504.66484061241675,12.873331406350339 504.6648348387679,12.873364432509495 L 504.62438105462456,13.104766296519095 C 504.6243739574694,13.104806893337342 504.62004136399923,13.129067987090734 504.6200339708752,13.12910853105427 L 504.5688720389407,13.409681058763509 C 504.5688630631632,13.409730282013985 504.56344550897376,13.439156573281053 504.5634363658409,13.439205765720434 L 504.50235635691007,13.767832146021863 C 504.50234564111906,13.767889799772794 504.4959196816668,13.802363403168691 504.49590890595465,13.802421045750188 L 504.4256302213718,14.178363234016143 C 504.425617891778,14.178429188786014 504.4182549776479,14.217872042051193 504.4182426821108,14.21793800317853 L 504.33948605559533,14.640438934607989 C 504.33947223864334,14.640513057578415 504.33124535745634,14.684845210731213 504.33123165975553,14.684919355831532 L 504.24471642657755,15.153222813948577 C 504.24470124846647,15.153304972450002 504.2356840959414,15.202446648060134 504.23566911635174,15.202528842988844 L 504.14211386691625,15.715878489261767 C 504.1420974537146,15.715968550603218 504.132364447276,15.769840063718657 504.1323483086167,15.769930174661873 L 504.0324910890179,16.32748753141835 C 504.03247357020746,16.32758534849848 504.02211152068384,16.38610018527235 504.02209438381027,16.386198069987447 L 503.9174469302035,16.983937566659367 C 503.9174285710011,16.98404243323773 503.90661077671905,17.046780409542027 503.90659295600744,17.046885368971367 L 503.7996423838561,17.676796860340886 C 503.79962362059786,17.676907371128845 503.78861485696973,17.74302806345931 503.78859680162054,17.74313869211058 L 503.68185991183117,18.397136465340875 C 503.68184118606104,18.39725120179232 503.6709100233045,18.46590608699574 503.67089219000184,18.466020965544978 L 503.5668834880797,19.13602410715799 C 503.566865240939,19.1361416515688 503.556279329566,19.206482252368815 503.5562621723208,19.20659996080349 L 503.4572812201108,19.885665441803564 C 503.45726385503144,19.885784576098473 503.4472623953047,19.95708059202963 503.4472463106859,19.957199905948535 L 503.3549681013302,20.641709433980633 C 503.3549519121707,20.641829523371516 503.34571315097855,20.713699842973853 503.3456984412712,20.71382012254485 L 503.26170633897243,21.40061380286337 C 503.2616916035159,21.400734292982722 503.2533862546881,21.47284571462621 503.25337321305824,21.47296639983008 L 503.17925318091244,22.15886159100957 C 503.179240177398,22.15898192349925 503.17204008974255,22.23099834129406 503.17202901269627,22.23111886638898 L 503.10936548297025,22.912936713616915 C 503.1093544893685,22.913056330783096 503.10343222180404,22.98464132873399 503.10342340849087,22.984761126276677 L 503.0537957813329,23.65933919142369 C 503.05378707473164,23.659457538452664 503.049315848344,23.730275487683695 503.04930960101086,23.730393989983252 L 503.01429447606745,24.39457704615511 C 503.0142883330631,24.394693569498298 503.01144242915825,24.464408313633207 503.01143905408935,24.4645249499694 L 502.9926118713585,25.1151586673173 C 502.992608568344,25.115272813583502 502.9915612381932,25.18354651449388 502.9915610384313,25.183660708364503 L 502.9904520340971,25.817622896190606 C 502.99045183953496,25.817734117627065 502.9913197904853,25.88423168919359 502.99132288789343,25.884342867662035 L 503.00845299868354,26.49921161876185 C 503.00845600396616,26.49931949047257 503.0112461471524,26.563783795153856 503.0112524734524,26.563891523124344 L 503.046135890726,27.157906945344553 C 503.0461420106238,27.15801115857652 503.0508064951103,27.220255374225562 503.0508159754951,27.220359335627872 L 503.10292262366613,27.791758105823725 C 503.10293176518337,27.791858351222004 503.1094208897006,27.85169421084253 503.1094334509409,27.851794085376092 L 503.1782323728164,28.398814923694676 C 503.1782444428027,28.3989108922628 503.18650289893066,28.45614995754141 503.18651844919896,28.456245423974213 L 503.2713924134613,28.97730489653883 C 503.27140730363044,28.977396310481385 503.28136232652884,29.03186983264333 503.2813807307506,29.031960604393625 L 503.3815205162949,29.52586160759118 C 503.38153808467837,29.52594825688999 503.39310766048493,29.577525939117212 503.39312878633496,29.577611790427863 L 503.5077087463332,30.04324227262461 C 503.5077288059648,30.04332379103277 503.52080387650244,30.091780542013662 503.5208275462037,30.091861086317813 L 503.6490392822616,30.52814564030762 C 503.64906163413235,30.528221700239865 503.66350728107125,30.57336015460917 503.663533242401,30.57343505940726 L 503.80420227791706,30.97929969789797 C 503.8042266463968,30.979370006933404 503.81978314957433,31.021047466021493 503.81981080953335,31.021116546481338 L 503.96974719283503,31.39558110359329 C 503.96977294411215,31.395645417140003 503.986036168506,31.43373604025346 503.9860648092837,31.433799120095085 L 504.1414015069486,31.775920217358948 C 504.1414278927324,31.775978330692276 504.157959445874,31.810368199367698 504.15798834956564,31.810425102317566 L 504.3148554046842,32.119250642153816 C 504.3148816846416,32.11930237973523 504.3312502532828,32.14989194873061 504.33127871770216,32.14994251740002 L 504.4858410517723,32.4245313466547 C 504.485866667959,32.42457685527591 504.50176579606097,32.45144744538714 504.5017933542158,32.451491804960284 L 504.65148849924446,32.692451796190525 C 504.6515131203686,32.69249142810952 504.66675825582087,32.715850834584835 504.6667846217718,32.71588932777111 L 504.8100662804566,32.925074560339134 C 504.81008962799535,32.925108646769786 504.8245133891328,32.945160045719255 504.8245382815978,32.94519302082355 L 504.9598871285799,33.12448994200705 C 504.9599089225927,33.12451881258474 504.97334350388354,33.14146490814975 504.9733666415807,33.14149271347696 L 505.0992641941551,33.29278791884244 C 505.0992841518927,33.292811902708245 505.11156090795976,33.30685525123567 505.11158200960705,33.306878235090686 L 505.22651072244423,33.43205826684393 C 505.22652855803267,33.43207769331681 505.2374779092483,33.44342090433636 505.23749669356357,33.44343941502407 L 505.33994004282,33.54439049119416 C 505.33995546698037,33.54440569067365 505.3494068156358,33.55325169681117 505.3494230013372,33.55326608263648 L 505.43786557864485,33.631873702909516 C 505.43787829838004,33.631885008189634 505.445659935009,33.63843745801943 505.4456732408144,33.63844806728724 L 505.52151633165477,33.69892089377956" fill="none" stroke="#000000" stroke-linecap="round" stroke-width="2.94" data-llp-id="test-7" data-llp-duration="186.50429635680487" data-llp-delay="519.1137345205213" fill-opacity="0" style=""/><path d="M 528.254283482147,20.447689789690102 L 528.2213530530393,20.653308534165397 C 528.221347275771,20.653344607629343 528.2178130189471,20.674903514375092 528.2178069759584,20.674939544278192 L 528.1785922713192,20.908748026317806 C 528.1785853915464,20.908789045349742 528.1744446092736,20.933313922103093 528.1744376402762,20.93335492607033 L 528.1289466880086,21.20101315715719 C 528.1289387071397,21.20106011474159 528.124182711407,21.229143555334968 528.1241747859356,21.229190522301046 L 528.0738826358366,21.52722575342432 C 528.0738738126524,21.527278040306975 528.068654189717,21.558555048632215 528.0686455559684,21.558607367128573 L 528.0149478391425,21.884002964206186 C 528.0149384184904,21.884060051153043 528.0094003004168,21.91821352002193 528.009391198935,21.918270658723465 L 527.9536857275409,22.26798714679036 C 527.9536759546512,22.268048500560198 527.947965998447,22.30475893340044 527.9479566744933,22.30482035699796 L 527.8916399162026,22.67581939655152 C 527.8916300360696,22.675884484102323 527.8858957390737,22.71483246076048 527.8858864409559,22.71489763400118 L 527.8303539952303,23.104140869471184 C 527.830344252696,23.10420915775811 527.8247338449257,23.14507515642519 527.8247248235544,23.145143543719094 L 527.771371548073,23.549592715627714 C 527.7713621878493,23.549663671622785 527.7660181046258,23.59212723858887 527.7660095916615,23.592198301212413 L 527.7161763476935,24.00818513539219 C 527.7161676050191,24.008258115538535 527.7111887723398,24.05192866395383 527.7111808633999,24.052001739153354 L 527.6658076702128,24.471230507345062 C 527.6657997100034,24.47130405625176 527.6612742156105,24.515310439464898 527.6612670403872,24.51538406909737 L 527.6210871695058,24.927695847052608 C 527.6210801204056,24.92776818245225 527.6170959446279,24.97104603452074 527.6170896687254,24.97111844110126 L 527.5827903783766,25.366837518874355 C 527.5827844832339,25.366905532537817 527.5794946344259,25.407596738930895 527.5794895267297,25.407664816258713 L 527.5517677796366,25.777150858540637 C 527.551763139232,25.77721270762826 527.5492323118705,25.814215159910205 527.5492284879696,25.814277064843594 L 527.5284645069614,26.15042407998452 C 527.528461066115,26.15047978366841 527.5266470803925,26.183803849126605 527.526644454397,26.18385959716666 L 527.5123793152189,26.486698480382152 C 527.512376971768,26.486748230199115 527.511217439081,26.51650804399187 527.5112159044961,26.516557825324714 L 527.5028755640311,26.78711521766769 C 527.5028742080547,26.78715920501725 527.5023044201223,26.813468861251657 527.5023038704535,26.813512866063416 L 527.4993147194582,27.052815227159158 C 527.4993142395888,27.05285364404559 527.4992690557028,27.075827417651627 527.4992693844555,27.075865836128425 L 527.5010584577544,27.28493931683213 C 527.501058740478,27.284972356288947 527.5014723780091,27.304724829937445 527.5014734786886,27.304757852265407 L 527.5074687991724,27.484628049923728 C 527.5074697276814,27.484655906829467 527.5082754192276,27.501302214854757 527.5082771853392,27.501330031220004 L 527.5179083516498,27.653021481443588 C 527.5179098038838,27.653044354215908 527.519039211545,27.66670068914922 527.5190415365942,27.666723489737883 L 527.5317407711625,27.791258499223282 C 527.5317426163153,27.791276593709554 527.5331247871476,27.8020613695665 527.5331275646397,27.802079344564696 L 527.5489592695574,27.9045368342888" fill="none" stroke="#000000" stroke-linecap="round" stroke-width="2.94" data-llp-id="test-8" data-llp-duration="71.39508614076524" data-llp-delay="705.6180308773262" fill-opacity="0" style=""/><path d="M 528.8149512494365,15.128360704137618 L 528.8508916884404,15.125925860225484 C 528.8508979937806,15.125925433059885 528.8546662973782,15.125639780795058 528.8546725950602,15.125639252601912 L 528.8909051780779,15.122600388084903" fill="none" stroke="#000000" stroke-linecap="round" stroke-width="2.94" data-llp-id="test-9" data-llp-duration="0.6453079305403371" data-llp-delay="777.0131170180914" fill-opacity="0" style=""/><path d="M 534.614471071179,22.88452297290729 L 534.625956532438,23.00499620200576 C 534.6259585474312,23.005017337659986 534.6272138162223,23.017651461026247 534.6272159994525,23.017672579965218 L 534.6421050751758,23.161698383869677 C 534.6421076872944,23.161723651554574 534.6436917749912,23.17683141608737 534.6436944608249,23.176856676043055 L 534.661762015434,23.346779945321543 C 534.6617651851803,23.34680975642142 534.6636608536065,23.364636777124883 534.6636640238883,23.36466658816783 L 534.6842111174419,23.5578766354371 C 534.6842147221952,23.557910531936624 534.6863508482405,23.578182695139738 534.6863543877215,23.57821659851715 L 534.708709751954,23.792350351049627 C 534.7087136739476,23.792387918374633 534.7110208199995,23.814857101757738 534.7110246142132,23.814894682203246 L 534.7345167578646,24.047576673639128 C 534.7345208792933,24.047617495041134 534.7369288010532,24.072034284322065 534.7369327328745,24.072075124422668 L 534.7608909224493,24.320930500189828 C 534.7608951256406,24.32097415902768 534.7633330997015,24.347089195578054 534.7633370502698,24.347132877999563 L 534.7870910468367,24.609786761067326 C 534.7870952142046,24.609832840695937 534.7894947223864,24.637396517801534 534.7894985801296,24.63744262438398 L 534.8124087013233,24.91125748156517 C 534.8124127206429,24.91130551925941 534.8147331915118,24.940038770057996 534.8147369329644,24.94008683019251 L 534.8364945802944,25.219570645989194 C 534.8364983974254,25.219619678237578 534.8387215890264,25.248945469895812 534.8387252073187,25.24899451721819 L 534.8592363095559,25.527030275333914 C 534.8592399079948,25.52707905353709 534.8613538326397,25.55625116845282 534.8613573041828,25.55629995585137 L 534.8805432198001,25.825929594464107 C 534.8805465595875,25.825976530232808 534.8825275798538,25.85404526134078 534.8825308655521,25.854092200926956 L 534.9003491004968,26.108644046241448 C 534.9003521346486,26.108687392227754 534.9021927214211,26.134606434062473 534.9021958430778,26.13464977383481 L 534.9191383327357,26.369872194790805 C 534.9191411692473,26.369911575728697 534.9209279466946,26.393454504839223 534.9209310860274,26.393493862794678 L 534.9379863634919,26.607316646258184 C 534.9379891598878,26.607351704800305 534.939824629056,26.628302413074525 534.939827971353,26.628337423790846 L 534.9580087746726,26.8187821869594 C 534.9580116756365,26.81881257469225 534.9599940838845,26.83695738396198 534.9599978130484,26.83698768120997 L 534.9803182835124,27.00207946572666 C 534.9803214027261,27.002104807490042 534.9825201571151,27.017210644015524 534.9825243915951,27.017235823444533 L 535.0056571883506,27.154790050840564 C 535.0056605341465,27.154809945900425 535.008085909771,27.166619995672033 535.0080906755992,27.166639599106393 L 535.0342233498168,27.274131967754073 C 535.0342267916388,27.27414612511142 535.0368454488613,27.282435169386694 535.0368507650902,27.282448734585447 L 535.0661465967868,27.357201682954226 C 535.0661499523623,27.35721024523602 535.0689132596508,27.361883021192096 535.0689191459056,27.361890086923538 L 535.1012055676736,27.400646000750054 C 535.1012097851096,27.400651063267972 535.104438983712,27.402252321862967 535.1044455662712,27.402252614724965 L 535.1400901246777,27.403838462458015 C 535.140096378109,27.403838740676917 535.1434055514388,27.40272563489722 535.1434103654769,27.402721633916514 L 535.1855646779607,27.367686889735634 C 535.1855720734541,27.367680743289284 535.1894466576472,27.363497656642316 535.1894522206293,27.36348981283232 L 535.23960785559,27.292770320891186 C 535.2396166548242,27.292757913962774 535.2445058769368,27.285100588138015 535.2445134296161,27.28508738528106 L 535.3045257734028,27.180179660762388 C 535.3045363018842,27.180161255898437 535.3106077430277,27.169032617504396 535.3106175203696,27.169013802841942 L 535.3822681467167,27.03113559740585 C 535.382280717002,27.031111408247003 535.3896556471991,27.016574201702184 535.3896677422321,27.01654977144115 L 535.4735468579171,26.84712578713296 C 535.4735615735514,26.84709606362694 535.4822774640672,26.829280283517146 535.4822918985684,26.829250422474303 L 535.5787471088225,26.629710921164218 C 535.5787640307892,26.629675914234163 535.5888479433945,26.608724720562527 535.588864746888,26.608689656610736 L 535.6982414489593,26.38045262918383 C 535.6982606378543,26.38041258760007 535.7097419661818,26.3564707748022 535.7097611763782,26.356430743433457 L 535.8322716796881,26.10113594804557 C 535.8322931727589,26.101091159484977 535.8451857992404,26.07432675785844 535.8452074253217,26.074282033370114 L 535.9803534844531,25.794789033962008 C 535.980377194288,25.79474000010246 535.9946256963523,25.765451816724262 535.9946496403703,25.765402896793248 L 536.1417179211974,25.46492825982235 C 536.1417437226501,25.464875544973758 536.1572728986123,25.43340135913479 536.1572990342028,25.4333488091478 L 536.3155840882529,25.115090168416234 C 536.3156118575606,25.115034333566985 536.3323501949325,25.08171154485351 536.3323784066862,25.081655932248868 L 536.5011996631873,24.748865922557147 C 536.5012292809516,24.74880753834492 536.5191259099445,24.713988974688174 536.5191561471266,24.713930908854724 L 536.6980693059927,24.370355848606703 C 536.6981006942661,24.37029557228034 536.7171207888838,24.334382684281483 536.7171530129668,24.334322850614534 L 536.9058462536486,23.983957303053913 C 536.905879357726,23.983895835413993 536.9259922937747,23.947312301216886 536.9260264570421,23.947251415899625 L 537.1241918534092,23.594083701871572 C 537.1242266192683,23.594021742623497 537.145400923881,23.557191061987357 537.1454369750942,23.55712984170153 L 537.3527338942399,23.205109049914878 C 537.3527702621205,23.205047291881232 537.3749398755517,23.168370842625013 537.3749776535356,23.16830993694877 L 537.590547803387,22.820767679664232 C 537.5905856227116,22.820706707338395 537.6136376048762,22.78452304109897 537.613676882482,22.784462997818657 L 537.836234129032,22.444241976845323 C 537.836273174163,22.444182288946905 537.8600771200423,22.40879496137978 537.8601176867704,22.408736297012087 L 538.0883581835933,22.078673089116784 C 538.0883982257857,22.07861518329084 538.112822431077,22.04432869985778 538.1128640751899,22.04427193517057 L 538.345486512764,21.72718654211771 C 538.3455273237179,21.727130913101387 538.3704299525212,21.69424158567109 538.3704724279513,21.69418721693681 L 538.6062605077739,21.392377454008766 C 538.6063018741037,21.392324504927554 538.6315462935034,21.361070756786006 538.6315893566699,21.361019178281463 L 538.86941853639,21.076161504872918 C 538.8694602608074,21.076111529842493 538.894931150579,21.046676155905082 538.894974613084,21.046627684868824 L 539.1337103011338,20.78038057739601 C 539.1337521845878,20.780333867377156 539.1593336607357,20.752900316668935 539.1593773340581,20.752855275682077 L 539.3978885463325,20.506874896941998 C 539.3979303904049,20.506831742489588 539.4235133571087,20.481593237307298 539.4235570747979,20.481551982043378 L 539.6610873424094,20.257400750513355 C 539.6611290143861,20.257361425735894 539.6866449118156,20.234510786986142 539.6866885772884,20.234473688222632 L 539.923201837119,20.03352889304112 C 539.9232432362074,20.0334937198277 539.9486233477182,20.013241453079267 539.9486668319458,20.01320889295908 L 540.1841772723627,19.83686338391032 C 540.184218437885,19.836832559990278 540.2094718961665,19.819317537699956 540.2095151903709,19.81928978295013 L 540.4439910936456,19.6689735887651 C 540.444032097185,19.66894730249902 540.4691709010683,19.654289168600343 540.4692139737962,19.654266431007226 L 540.7024617966027,19.531137612428108 C 540.7025026856887,19.531116027554173 540.7275060017273,19.519383927297397 540.727548735772,19.51936627437783 L 540.9589535871652,19.423775714911017 C 540.9589941845076,19.423758944637424 540.9837247890023,19.415012258138212 540.9837669027117,19.4149997752797 L 541.2126610479245,19.347153621019427 C 541.212701204792,19.347141718185345 541.2370403794931,19.341404027885297 541.2370816245476,19.341396741119713 L 541.4627788275602,19.30152280637472 C 541.4628184235607,19.30151581094757 541.4866635416777,19.298791950003643 541.4867036952361,19.29878983552797 L 541.708429067625,19.28711383656128 C 541.7084679668131,19.287111788140407 541.7317113998786,19.28739376687384 541.7317502379249,19.2873967583674 L 541.9483478804406,19.304080153024145 C 541.9483858800269,19.304083079935488 541.9708887857752,19.307353133286938 541.9709260467431,19.30736114300888 L 542.181139170289,19.35254914430996 C 542.1811760497844,19.35255707202949 542.2027997415294,19.35879039392064 542.2028351820733,19.358803313431515 L 542.4054017908101,19.432647030700686 C 542.4054373288117,19.432659985738802 542.426059311222,19.441824192194936 542.4260927430613,19.441841886676738 L 542.6197704892394,19.54434977815443 C 542.6198044677914,19.54436776199504 542.6393466739353,19.556385533232934 542.6393780539323,19.556407742607163 L 542.8231534332986,19.686475829390734 C 542.8231856745932,19.686498648353325 542.8415962113176,19.701231275068356 542.8416255437244,19.70125772910481 L 543.0145962732073,19.85725495140135 C 543.0146266189493,19.857282319335088 543.031846274137,19.87457170322488 543.031873519215,19.87460215931753 L 543.1931505232551,20.054886736792575 C 543.1931788174663,20.054918365665817 543.2091385960972,20.074610603262336 543.209163679072,20.074644834715503 L 543.3578671392868,20.277584700124493 C 543.3578932276132,20.277620303609652 543.3725119311787,20.299565422368786 543.3725347348375,20.299603213929643 L 543.507787288438,20.523751678522554 C 543.5078110169561,20.52379100281459 543.5210029635468,20.54785390020478 543.5210233552514,20.54789505383044 L 543.6419452086543,20.791934127670192 C 543.6419664230145,20.791976941542796 543.6536444860036,20.818031494684742 543.6536623287102,20.818075819785857 L 543.7593747993515,21.080688216746 C 543.759393345399,21.080734289096345 543.7694709381636,21.108651212141297 543.7694860964398,21.108698507426553 L 543.8591504106334,21.388459825677906 C 543.8591661412148,21.388508906610934 543.8676359840102,21.418127267499777 543.8676485806623,21.418177244629923 L 543.9414064765697,21.710811189388146 C 543.9414194165514,21.7108625286767 543.9483645819681,21.741741767167078 543.9483748699644,21.74179370292364 L 544.0074600212292,22.040066754332663 C 544.0074703870453,22.040119082938176 544.0129998977995,22.071529404119744 544.0130080253306,22.071582126755644 L 544.0587393418499,22.368237476595908 C 544.0587473648878,22.368289521394125 544.062977030561,22.39948932786541 544.0629831535621,22.399541630246027 L 544.0966814638031,22.687390976113132 C 544.0966873638145,22.687441373726703 544.0997231543853,22.717628666569038 544.0997274075196,22.717679229801096 L 544.1227713404761,22.991636184120544 C 544.1227753369186,22.991683695681907 544.1247327557836,23.020125371798468 544.1247353058925,23.020172982899705 L 544.1385598013915,23.278279401787 C 544.1385621718073,23.27832365798089 544.1396027361516,23.30480367441251 544.139603845884,23.304847980146484 L 544.1456239876308,23.545200330922462 C 544.1456250054079,23.545240965365394 544.1459089902942,23.569544155751604 544.1459089222993,23.569584802881874 L 544.1455397435524,23.790278917496924 C 544.1455396822466,23.7903155659233 544.1452274130163,23.812227397156192 544.1452264299434,23.81226403244631 L 544.1398829361098,24.01139518468373 C 544.1398820693701,24.011427484688525 544.1391338991233,24.03073397996671 544.1391322636214,24.030766250180235 L 544.1302294057558,24.206429219789243 C 544.1302280074123,24.206456810614203 544.12920434342,24.22294448552359 544.1292023181383,24.22297203742408 L 544.1181548840239,24.373261152636353 C 544.1181532284506,24.373283675028283 544.1170146407115,24.386739495167276 544.117012488299,24.38676197551829 L 544.1047437371288,24.514899976277" fill="none" stroke="#000000" stroke-linecap="round" stroke-width="2.94" data-llp-id="test-10" data-llp-duration="93.95673395055223" data-llp-delay="777.6584249486317" fill-opacity="0" style=""/></svg>