<svg id="visual" viewBox="0 0 900 900" width="900" height="900" xmlns="http://www.w3.org/2000/svg" xmlns:xlink="http://www.w3.org/1999/xlink" version="1.1"><g stroke-width="1" stroke-linejoin="bevel"><path d="M399.1 467.9L338.3 438.1L313.3 519.9Z" fill="#4d5fdc" stroke="#4d5fdc"></path><path d="M338.3 438.1L295.5 433.1L313.3 519.9Z" fill="#6366f1" stroke="#6366f1"></path><path d="M260.5 534.9L299.3 554.7L313.3 519.9Z" fill="#003f87" stroke="#003f87"></path><path d="M313.3 519.9L334.3 604.5L399.1 467.9Z" fill="#13489c" stroke="#13489c"></path><path d="M295.5 433.1L260.5 534.9L313.3 519.9Z" fill="#001b35" stroke="#001b35"></path><path d="M286.5 602.5L334.3 604.5L299.3 554.7Z" fill="#002448" stroke="#002448"></path><path d="M299.3 554.7L334.3 604.5L313.3 519.9Z" fill="#3958c7" stroke="#3958c7"></path><path d="M399.1 467.9L425.1 382.1L338.3 438.1Z" fill="#4d5fdc" stroke="#4d5fdc"></path><path d="M293.3 296.3L228.5 358.3L295.5 433.1Z" fill="#001b35" stroke="#001b35"></path><path d="M165.6 455.9L239.5 555.7L260.5 534.9Z" fill="#002d5d" stroke="#002d5d"></path><path d="M260.5 534.9L239.5 555.7L299.3 554.7Z" fill="#001122" stroke="#001122"></path><path d="M239.5 555.7L286.5 602.5L299.3 554.7Z" fill="#001122" stroke="#001122"></path><path d="M334.3 604.5L483.9 542.9L399.1 467.9Z" fill="#3958c7" stroke="#3958c7"></path><path d="M399.1 467.9L526.7 445.1L425.1 382.1Z" fill="#13489c" stroke="#13489c"></path><path d="M286.5 602.5L356.1 655.5L334.3 604.5Z" fill="#2650b2" stroke="#2650b2"></path><path d="M334.3 604.5L449.1 626.7L483.9 542.9Z" fill="#002448" stroke="#002448"></path><path d="M356.1 655.5L449.1 626.7L334.3 604.5Z" fill="#002d5d" stroke="#002d5d"></path><path d="M293.3 296.3L295.5 433.1L338.3 438.1Z" fill="#4d5fdc" stroke="#4d5fdc"></path><path d="M295.5 433.1L165.6 455.9L260.5 534.9Z" fill="#002448" stroke="#002448"></path><path d="M611.7 528.9L526.7 445.1L483.9 542.9Z" fill="#001b35" stroke="#001b35"></path><path d="M483.9 542.9L526.7 445.1L399.1 467.9Z" fill="#001122" stroke="#001122"></path><path d="M239.5 555.7L203.6 597.7L286.5 602.5Z" fill="#001122" stroke="#001122"></path><path d="M286.5 602.5L246.5 739.4L356.1 655.5Z" fill="#003f87" stroke="#003f87"></path><path d="M184.6 600.5L203.6 597.7L239.5 555.7Z" fill="#003f87" stroke="#003f87"></path><path d="M449.1 626.7L502.9 597.7L483.9 542.9Z" fill="#13489c" stroke="#13489c"></path><path d="M228.5 358.3L165.6 455.9L295.5 433.1Z" fill="#3958c7" stroke="#3958c7"></path><path d="M611.7 528.9L534.9 434.1L526.7 445.1Z" fill="#002d5d" stroke="#002d5d"></path><path d="M526.7 445.1L534.9 434.1L425.1 382.1Z" fill="#6366f1" stroke="#6366f1"></path><path d="M398.1 289.3L293.3 296.3L425.1 382.1Z" fill="#13489c" stroke="#13489c"></path><path d="M425.1 382.1L293.3 296.3L338.3 438.1Z" fill="#001122" stroke="#001122"></path><path d="M165.6 455.9L184.6 600.5L239.5 555.7Z" fill="#003f87" stroke="#003f87"></path><path d="M203.6 597.7L246.5 739.4L286.5 602.5Z" fill="#001b35" stroke="#001b35"></path><path d="M489.9 334.3L398.1 289.3L425.1 382.1Z" fill="#2650b2" stroke="#2650b2"></path><path d="M356.1 655.5L435.9 673.5L449.1 626.7Z" fill="#001b35" stroke="#001b35"></path><path d="M449.1 626.7L435.9 673.5L502.9 597.7Z" fill="#3958c7" stroke="#3958c7"></path><path d="M534.9 434.1L489.9 334.3L425.1 382.1Z" fill="#6366f1" stroke="#6366f1"></path><path d="M534.9 434.1L530.7 348.3L489.9 334.3Z" fill="#6366f1" stroke="#6366f1"></path><path d="M489.9 334.3L458.1 194.5L398.1 289.3Z" fill="#3958c7" stroke="#3958c7"></path><path d="M228.5 358.3L127.8 421.1L165.6 455.9Z" fill="#003f87" stroke="#003f87"></path><path d="M165.6 455.9L112.8 444.9L184.6 600.5Z" fill="#001b35" stroke="#001b35"></path><path d="M109.6 375.1L127.8 421.1L228.5 358.3Z" fill="#002448" stroke="#002448"></path><path d="M127.8 421.1L112.8 444.9L165.6 455.9Z" fill="#003672" stroke="#003672"></path><path d="M398.1 289.3L329.3 243.5L293.3 296.3Z" fill="#2650b2" stroke="#2650b2"></path><path d="M293.3 296.3L198.5 277.5L228.5 358.3Z" fill="#002d5d" stroke="#002d5d"></path><path d="M458.1 194.5L329.3 243.5L398.1 289.3Z" fill="#002448" stroke="#002448"></path><path d="M191.6 249.5L198.5 277.5L293.3 296.3Z" fill="#2650b2" stroke="#2650b2"></path><path d="M127.8 421.1L109.6 375.1L112.8 444.9Z" fill="#001b35" stroke="#001b35"></path><path d="M613.7 551.7L483.9 542.9L502.9 597.7Z" fill="#6366f1" stroke="#6366f1"></path><path d="M613.7 551.7L611.7 528.9L483.9 542.9Z" fill="#001122" stroke="#001122"></path><path d="M620.5 341.3L580.7 299.5L530.7 348.3Z" fill="#3958c7" stroke="#3958c7"></path><path d="M111.6 294.3L109.6 375.1L228.5 358.3Z" fill="#13489c" stroke="#13489c"></path><path d="M618.7 648.5L613.7 551.7L502.9 597.7Z" fill="#002d5d" stroke="#002d5d"></path><path d="M136.8 734.4L246.5 739.4L184.6 600.5Z" fill="#001b35" stroke="#001b35"></path><path d="M184.6 600.5L246.5 739.4L203.6 597.7Z" fill="#001122" stroke="#001122"></path><path d="M356.1 655.5L358.1 784.4L435.9 673.5Z" fill="#2650b2" stroke="#2650b2"></path><path d="M580.7 299.5L545.9 292.5L530.7 348.3Z" fill="#4d5fdc" stroke="#4d5fdc"></path><path d="M530.7 348.3L545.9 292.5L489.9 334.3Z" fill="#6366f1" stroke="#6366f1"></path><path d="M329.3 243.5L191.6 249.5L293.3 296.3Z" fill="#003f87" stroke="#003f87"></path><path d="M198.5 277.5L111.6 294.3L228.5 358.3Z" fill="#4d5fdc" stroke="#4d5fdc"></path><path d="M246.5 739.4L323.3 772.4L356.1 655.5Z" fill="#3958c7" stroke="#3958c7"></path><path d="M592.7 719.4L618.7 648.5L502.9 597.7Z" fill="#001b35" stroke="#001b35"></path><path d="M25.8 514.7L184.6 600.5L112.8 444.9Z" fill="#3958c7" stroke="#3958c7"></path><path d="M25.8 514.7L107.8 638.5L184.6 600.5Z" fill="#3958c7" stroke="#3958c7"></path><path d="M620.5 341.3L530.7 348.3L534.9 434.1Z" fill="#4d5fdc" stroke="#4d5fdc"></path><path d="M545.9 292.5L458.1 194.5L489.9 334.3Z" fill="#002448" stroke="#002448"></path><path d="M323.3 772.4L358.1 784.4L356.1 655.5Z" fill="#001b35" stroke="#001b35"></path><path d="M258.5 785.2L344.3 786.2L323.3 772.4Z" fill="#4d5fdc" stroke="#4d5fdc"></path><path d="M323.3 772.4L344.3 786.2L358.1 784.4Z" fill="#002d5d" stroke="#002d5d"></path><path d="M700.5 452.9L620.5 341.3L534.9 434.1Z" fill="#13489c" stroke="#13489c"></path><path d="M700.5 452.9L534.9 434.1L611.7 528.9Z" fill="#4d5fdc" stroke="#4d5fdc"></path><path d="M191.6 249.5L111.6 294.3L198.5 277.5Z" fill="#002d5d" stroke="#002d5d"></path><path d="M465.1 172.6L458.1 194.5L536.9 199.6Z" fill="#001b35" stroke="#001b35"></path><path d="M329.3 243.5L193.6 203.6L191.6 249.5Z" fill="#2650b2" stroke="#2650b2"></path><path d="M592.7 719.4L502.9 597.7L435.9 673.5Z" fill="#002d5d" stroke="#002d5d"></path><path d="M702.4 532.9L700.5 452.9L611.7 528.9Z" fill="#6366f1" stroke="#6366f1"></path><path d="M205.6 774.4L258.5 785.2L246.5 739.4Z" fill="#3958c7" stroke="#3958c7"></path><path d="M246.5 739.4L258.5 785.2L323.3 772.4Z" fill="#2650b2" stroke="#2650b2"></path><path d="M445.9 822.2L507.9 765.4L435.9 673.5Z" fill="#13489c" stroke="#13489c"></path><path d="M445.9 822.2L435.9 673.5L358.1 784.4Z" fill="#2650b2" stroke="#2650b2"></path><path d="M186.6 775.2L205.6 774.4L246.5 739.4Z" fill="#6366f1" stroke="#6366f1"></path><path d="M291.3 137.6L193.6 203.6L329.3 243.5Z" fill="#13489c" stroke="#13489c"></path><path d="M191.6 249.5L68.8 226.5L111.6 294.3Z" fill="#2650b2" stroke="#2650b2"></path><path d="M0 522.9L25.8 514.7L0 406.1Z" fill="#001b35" stroke="#001b35"></path><path d="M0 406.1L25.8 514.7L112.8 444.9Z" fill="#002448" stroke="#002448"></path><path d="M0 705.5L136.8 734.4L107.8 638.5Z" fill="#4d5fdc" stroke="#4d5fdc"></path><path d="M107.8 638.5L136.8 734.4L184.6 600.5Z" fill="#4d5fdc" stroke="#4d5fdc"></path><path d="M136.8 734.4L186.6 775.2L246.5 739.4Z" fill="#6366f1" stroke="#6366f1"></path><path d="M216.6 900L243.5 900L258.5 785.2Z" fill="#003f87" stroke="#003f87"></path><path d="M536.9 199.6L458.1 194.5L545.9 292.5Z" fill="#6366f1" stroke="#6366f1"></path><path d="M299.5 126.6L291.3 137.6L329.3 243.5Z" fill="#3958c7" stroke="#3958c7"></path><path d="M536.9 199.6L545.9 292.5L597.5 217.6Z" fill="#003f87" stroke="#003f87"></path><path d="M507.9 765.4L592.7 719.4L435.9 673.5Z" fill="#002d5d" stroke="#002d5d"></path><path d="M597.5 217.6L545.9 292.5L580.7 299.5Z" fill="#3958c7" stroke="#3958c7"></path><path d="M410.1 848.2L358.1 784.4L344.3 786.2Z" fill="#2650b2" stroke="#2650b2"></path><path d="M410.1 848.2L445.9 822.2L358.1 784.4Z" fill="#002d5d" stroke="#002d5d"></path><path d="M507.9 765.4L606.5 796.2L592.7 719.4Z" fill="#003f87" stroke="#003f87"></path><path d="M410.1 848.2L344.3 786.2L353.3 900Z" fill="#3958c7" stroke="#3958c7"></path><path d="M702.4 532.9L613.7 551.7L709.5 601.7Z" fill="#001122" stroke="#001122"></path><path d="M702.4 532.9L611.7 528.9L613.7 551.7Z" fill="#13489c" stroke="#13489c"></path><path d="M602.7 213.6L597.5 217.6L609.5 216.5Z" fill="#002d5d" stroke="#002d5d"></path><path d="M693.5 617.5L613.7 551.7L618.7 648.5Z" fill="#003f87" stroke="#003f87"></path><path d="M0 406.1L112.8 444.9L109.6 375.1Z" fill="#001b35" stroke="#001b35"></path><path d="M25.8 514.7L0 561.7L107.8 638.5Z" fill="#002d5d" stroke="#002d5d"></path><path d="M299.5 126.6L329.3 243.5L458.1 194.5Z" fill="#001122" stroke="#001122"></path><path d="M68.8 226.5L33.8 329.3L111.6 294.3Z" fill="#003f87" stroke="#003f87"></path><path d="M111.6 294.3L33.8 329.3L109.6 375.1Z" fill="#6366f1" stroke="#6366f1"></path><path d="M700.5 452.9L687.5 359.1L620.5 341.3Z" fill="#13489c" stroke="#13489c"></path><path d="M0 522.9L0 561.7L25.8 514.7Z" fill="#3958c7" stroke="#3958c7"></path><path d="M33.8 329.3L0 406.1L109.6 375.1Z" fill="#003672" stroke="#003672"></path><path d="M465.1 172.6L299.5 126.6L458.1 194.5Z" fill="#003672" stroke="#003672"></path><path d="M291.3 137.6L197.5 100.8L193.6 203.6Z" fill="#2650b2" stroke="#2650b2"></path><path d="M597.5 217.6L580.7 299.5L609.5 216.5Z" fill="#001122" stroke="#001122"></path><path d="M510.9 40.8L426.1 64.8L465.1 172.6Z" fill="#003672" stroke="#003672"></path><path d="M707.4 752.4L693.5 617.5L618.7 648.5Z" fill="#003f87" stroke="#003f87"></path><path d="M353.3 900L344.3 786.2L258.5 785.2Z" fill="#13489c" stroke="#13489c"></path><path d="M587.7 836.2L606.5 796.2L507.9 765.4Z" fill="#4d5fdc" stroke="#4d5fdc"></path><path d="M609.5 216.5L580.7 299.5L694.4 250.5Z" fill="#2650b2" stroke="#2650b2"></path><path d="M597.5 217.6L602.7 213.6L536.9 199.6Z" fill="#6366f1" stroke="#6366f1"></path><path d="M700.5 452.9L706.4 370.3L687.5 359.1Z" fill="#2650b2" stroke="#2650b2"></path><path d="M694.4 250.5L580.7 299.5L620.5 341.3Z" fill="#002448" stroke="#002448"></path><path d="M766.4 358.1L706.4 370.3L787.2 410.1Z" fill="#2650b2" stroke="#2650b2"></path><path d="M694.4 250.5L620.5 341.3L687.5 359.1Z" fill="#001122" stroke="#001122"></path><path d="M693.5 617.5L709.5 601.7L613.7 551.7Z" fill="#003672" stroke="#003672"></path><path d="M702.4 532.9L787.2 410.1L700.5 452.9Z" fill="#003f87" stroke="#003f87"></path><path d="M754.4 573.7L709.5 601.7L771.4 626.5Z" fill="#3958c7" stroke="#3958c7"></path><path d="M43.8 139.6L68.8 226.5L193.6 203.6Z" fill="#003f87" stroke="#003f87"></path><path d="M193.6 203.6L68.8 226.5L191.6 249.5Z" fill="#003672" stroke="#003672"></path><path d="M33.8 329.3L0 279.3L0 406.1Z" fill="#001122" stroke="#001122"></path><path d="M426.1 64.8L285.3 101.8L299.5 126.6Z" fill="#003f87" stroke="#003f87"></path><path d="M299.5 126.6L285.3 101.8L291.3 137.6Z" fill="#6366f1" stroke="#6366f1"></path><path d="M426.1 64.8L299.5 126.6L465.1 172.6Z" fill="#001b35" stroke="#001b35"></path><path d="M587.7 836.2L507.9 765.4L535.7 900Z" fill="#3958c7" stroke="#3958c7"></path><path d="M592.7 719.4L649.5 755.4L618.7 648.5Z" fill="#001b35" stroke="#001b35"></path><path d="M606.5 796.2L649.5 755.4L592.7 719.4Z" fill="#4d5fdc" stroke="#4d5fdc"></path><path d="M68.8 226.5L0 279.3L33.8 329.3Z" fill="#4d5fdc" stroke="#4d5fdc"></path><path d="M771.4 626.5L709.5 601.7L693.5 617.5Z" fill="#002d5d" stroke="#002d5d"></path><path d="M709.5 601.7L754.4 573.7L702.4 532.9Z" fill="#13489c" stroke="#13489c"></path><path d="M243.5 900L353.3 900L258.5 785.2Z" fill="#2650b2" stroke="#2650b2"></path><path d="M410.1 848.2L419.1 900L445.9 822.2Z" fill="#002448" stroke="#002448"></path><path d="M136.8 734.4L138.8 843.2L186.6 775.2Z" fill="#002448" stroke="#002448"></path><path d="M186.6 775.2L138.8 843.2L205.6 774.4Z" fill="#002d5d" stroke="#002d5d"></path><path d="M0 561.7L0 705.5L107.8 638.5Z" fill="#001122" stroke="#001122"></path><path d="M0 796.2L138.8 843.2L136.8 734.4Z" fill="#4d5fdc" stroke="#4d5fdc"></path><path d="M285.3 101.8L197.5 100.8L291.3 137.6Z" fill="#001122" stroke="#001122"></path><path d="M68.8 226.5L0 236.5L0 279.3Z" fill="#003f87" stroke="#003f87"></path><path d="M510.9 40.8L536.9 199.6L600.7 24.8Z" fill="#001b35" stroke="#001b35"></path><path d="M766.4 358.1L694.4 250.5L687.5 359.1Z" fill="#002448" stroke="#002448"></path><path d="M766.4 358.1L687.5 359.1L706.4 370.3Z" fill="#001122" stroke="#001122"></path><path d="M353.3 900L419.1 900L410.1 848.2Z" fill="#003672" stroke="#003672"></path><path d="M731.4 841.2L707.4 752.4L649.5 755.4Z" fill="#4d5fdc" stroke="#4d5fdc"></path><path d="M492.9 900L507.9 765.4L445.9 822.2Z" fill="#001b35" stroke="#001b35"></path><path d="M216.6 900L258.5 785.2L205.6 774.4Z" fill="#001122" stroke="#001122"></path><path d="M510.9 40.8L600.7 24.8L527.9 0Z" fill="#2650b2" stroke="#2650b2"></path><path d="M510.9 40.8L465.1 172.6L536.9 199.6Z" fill="#4d5fdc" stroke="#4d5fdc"></path><path d="M143.6 55.8L131.8 62.8L197.5 100.8Z" fill="#13489c" stroke="#13489c"></path><path d="M0 216.6L0 236.5L68.8 226.5Z" fill="#4d5fdc" stroke="#4d5fdc"></path><path d="M787.2 410.1L706.4 370.3L700.5 452.9Z" fill="#2650b2" stroke="#2650b2"></path><path d="M138.8 843.2L216.6 900L205.6 774.4Z" fill="#002d5d" stroke="#002d5d"></path><path d="M419.1 900L492.9 900L445.9 822.2Z" fill="#2650b2" stroke="#2650b2"></path><path d="M847.2 534.9L787.2 410.1L702.4 532.9Z" fill="#2650b2" stroke="#2650b2"></path><path d="M781.2 688.4L771.4 626.5L693.5 617.5Z" fill="#003f87" stroke="#003f87"></path><path d="M754.4 573.7L847.2 534.9L702.4 532.9Z" fill="#3958c7" stroke="#3958c7"></path><path d="M707.4 752.4L618.7 648.5L649.5 755.4Z" fill="#002448" stroke="#002448"></path><path d="M731.4 841.2L649.5 755.4L606.5 796.2Z" fill="#001b35" stroke="#001b35"></path><path d="M43.8 139.6L0 216.6L68.8 226.5Z" fill="#002d5d" stroke="#002d5d"></path><path d="M492.9 900L535.7 900L507.9 765.4Z" fill="#003672" stroke="#003672"></path><path d="M587.7 836.2L656.5 900L606.5 796.2Z" fill="#002d5d" stroke="#002d5d"></path><path d="M0 705.5L0 779.4L136.8 734.4Z" fill="#4d5fdc" stroke="#4d5fdc"></path><path d="M138.8 843.2L62.8 900L216.6 900Z" fill="#003f87" stroke="#003f87"></path><path d="M197.5 100.8L43.8 139.6L193.6 203.6Z" fill="#2650b2" stroke="#2650b2"></path><path d="M0 779.4L0 796.2L136.8 734.4Z" fill="#001122" stroke="#001122"></path><path d="M536.9 199.6L602.7 213.6L600.7 24.8Z" fill="#3958c7" stroke="#3958c7"></path><path d="M143.6 55.8L197.5 100.8L235.5 0Z" fill="#003f87" stroke="#003f87"></path><path d="M707.4 752.4L781.2 688.4L693.5 617.5Z" fill="#003f87" stroke="#003f87"></path><path d="M771.4 626.5L827.2 600.7L754.4 573.7Z" fill="#6366f1" stroke="#6366f1"></path><path d="M197.5 100.8L131.8 62.8L43.8 139.6Z" fill="#001122" stroke="#001122"></path><path d="M197.5 100.8L285.3 101.8L235.5 0Z" fill="#13489c" stroke="#13489c"></path><path d="M369.3 0L285.3 101.8L426.1 64.8Z" fill="#3958c7" stroke="#3958c7"></path><path d="M773.2 796.2L783.2 705.5L707.4 752.4Z" fill="#003f87" stroke="#003f87"></path><path d="M707.4 752.4L783.2 705.5L781.2 688.4Z" fill="#3958c7" stroke="#3958c7"></path><path d="M781.2 688.4L827.2 600.7L771.4 626.5Z" fill="#002d5d" stroke="#002d5d"></path><path d="M394.1 0L369.3 0L426.1 64.8Z" fill="#3958c7" stroke="#3958c7"></path><path d="M900 604.7L827.2 600.7L900 641.5Z" fill="#003672" stroke="#003672"></path><path d="M517.7 0L394.1 0L426.1 64.8Z" fill="#3958c7" stroke="#3958c7"></path><path d="M827.2 600.7L847.2 534.9L754.4 573.7Z" fill="#4d5fdc" stroke="#4d5fdc"></path><path d="M804.2 217.6L694.4 250.5L766.4 358.1Z" fill="#003672" stroke="#003672"></path><path d="M369.3 0L235.5 0L285.3 101.8Z" fill="#003672" stroke="#003672"></path><path d="M0 0L43.8 139.6L131.8 62.8Z" fill="#001b35" stroke="#001b35"></path><path d="M122.8 0L131.8 62.8L143.6 55.8Z" fill="#2650b2" stroke="#2650b2"></path><path d="M0 0L0 127.8L43.8 139.6Z" fill="#003672" stroke="#003672"></path><path d="M43.8 139.6L0 127.8L0 216.6Z" fill="#003672" stroke="#003672"></path><path d="M0 796.2L62.8 900L138.8 843.2Z" fill="#13489c" stroke="#13489c"></path><path d="M535.7 900L656.5 900L587.7 836.2Z" fill="#003672" stroke="#003672"></path><path d="M804.2 217.6L775.2 196.5L694.4 250.5Z" fill="#2650b2" stroke="#2650b2"></path><path d="M694.4 250.5L751.4 145.6L609.5 216.5Z" fill="#6366f1" stroke="#6366f1"></path><path d="M840.2 295.3L766.4 358.1L787.2 410.1Z" fill="#003f87" stroke="#003f87"></path><path d="M527.9 0L517.7 0L510.9 40.8Z" fill="#3958c7" stroke="#3958c7"></path><path d="M510.9 40.8L517.7 0L426.1 64.8Z" fill="#13489c" stroke="#13489c"></path><path d="M600.7 24.8L602.7 213.6L686.5 67.8Z" fill="#3958c7" stroke="#3958c7"></path><path d="M656.5 900L731.4 841.2L606.5 796.2Z" fill="#2650b2" stroke="#2650b2"></path><path d="M900 641.5L827.2 600.7L781.2 688.4Z" fill="#003f87" stroke="#003f87"></path><path d="M731.4 841.2L773.2 796.2L707.4 752.4Z" fill="#6366f1" stroke="#6366f1"></path><path d="M900 604.7L900 453.9L847.2 534.9Z" fill="#002448" stroke="#002448"></path><path d="M235.5 0L161.6 0L143.6 55.8Z" fill="#6366f1" stroke="#6366f1"></path><path d="M900 306.3L840.2 295.3L787.2 410.1Z" fill="#002d5d" stroke="#002d5d"></path><path d="M686.5 67.8L602.7 213.6L609.5 216.5Z" fill="#001b35" stroke="#001b35"></path><path d="M852.2 112.8L751.4 145.6L775.2 196.5Z" fill="#001b35" stroke="#001b35"></path><path d="M775.2 196.5L751.4 145.6L694.4 250.5Z" fill="#6366f1" stroke="#6366f1"></path><path d="M840.2 295.3L804.2 217.6L766.4 358.1Z" fill="#13489c" stroke="#13489c"></path><path d="M731.4 103.8L686.5 67.8L609.5 216.5Z" fill="#2650b2" stroke="#2650b2"></path><path d="M161.6 0L122.8 0L143.6 55.8Z" fill="#4d5fdc" stroke="#4d5fdc"></path><path d="M852.2 112.8L731.4 103.8L751.4 145.6Z" fill="#6366f1" stroke="#6366f1"></path><path d="M751.4 145.6L731.4 103.8L609.5 216.5Z" fill="#001b35" stroke="#001b35"></path><path d="M0 796.2L0 900L62.8 900Z" fill="#001122" stroke="#001122"></path><path d="M847.2 534.9L900 453.9L787.2 410.1Z" fill="#001b35" stroke="#001b35"></path><path d="M900 604.7L847.2 534.9L827.2 600.7Z" fill="#13489c" stroke="#13489c"></path><path d="M900 453.9L900 445.1L787.2 410.1Z" fill="#13489c" stroke="#13489c"></path><path d="M900 641.5L781.2 688.4L900 716.4Z" fill="#003672" stroke="#003672"></path><path d="M900 716.4L781.2 688.4L783.2 705.5Z" fill="#003f87" stroke="#003f87"></path><path d="M754.4 0L655.5 0L686.5 67.8Z" fill="#3958c7" stroke="#3958c7"></path><path d="M686.5 67.8L655.5 0L600.7 24.8Z" fill="#003672" stroke="#003672"></path><path d="M600.7 24.8L655.5 0L527.9 0Z" fill="#001122" stroke="#001122"></path><path d="M900 445.1L900 306.3L787.2 410.1Z" fill="#4d5fdc" stroke="#4d5fdc"></path><path d="M840.2 295.3L900 235.5L804.2 217.6Z" fill="#13489c" stroke="#13489c"></path><path d="M804.2 217.6L852.2 112.8L775.2 196.5Z" fill="#001b35" stroke="#001b35"></path><path d="M731.4 103.8L754.4 0L686.5 67.8Z" fill="#13489c" stroke="#13489c"></path><path d="M731.4 841.2L791.2 900L773.2 796.2Z" fill="#001b35" stroke="#001b35"></path><path d="M773.2 796.2L900 716.4L783.2 705.5Z" fill="#002448" stroke="#002448"></path><path d="M656.5 900L766.4 900L731.4 841.2Z" fill="#003672" stroke="#003672"></path><path d="M900 859.2L900 716.4L773.2 796.2Z" fill="#13489c" stroke="#13489c"></path><path d="M122.8 0L0 0L131.8 62.8Z" fill="#13489c" stroke="#13489c"></path><path d="M766.4 900L791.2 900L731.4 841.2Z" fill="#2650b2" stroke="#2650b2"></path><path d="M900 306.3L900 235.5L840.2 295.3Z" fill="#13489c" stroke="#13489c"></path><path d="M900 136.6L852.2 112.8L804.2 217.6Z" fill="#003f87" stroke="#003f87"></path><path d="M817.2 0L754.4 0L731.4 103.8Z" fill="#002d5d" stroke="#002d5d"></path><path d="M900 235.5L900 136.6L804.2 217.6Z" fill="#003f87" stroke="#003f87"></path><path d="M852.2 112.8L817.2 0L731.4 103.8Z" fill="#6366f1" stroke="#6366f1"></path><path d="M900 136.6L900 115.8L852.2 112.8Z" fill="#001122" stroke="#001122"></path><path d="M791.2 900L900 859.2L773.2 796.2Z" fill="#001122" stroke="#001122"></path><path d="M900 0L817.2 0L852.2 112.8Z" fill="#6366f1" stroke="#6366f1"></path><path d="M791.2 900L900 900L900 859.2Z" fill="#4d5fdc" stroke="#4d5fdc"></path><path d="M900 115.8L900 0L852.2 112.8Z" fill="#003f87" stroke="#003f87"></path></g></svg>