<svg id="visual" viewBox="0 0 900 900" width="900" height="900" xmlns="http://www.w3.org/2000/svg" xmlns:xlink="http://www.w3.org/1999/xlink" version="1.1"><path d="M0 199L75 118L150 109L225 118L300 91L375 109L450 37L525 64L600 145L675 172L750 37L825 172L900 46L900 0L825 0L750 0L675 0L600 0L525 0L450 0L375 0L300 0L225 0L150 0L75 0L0 0Z" fill="#6366f1"></path><path d="M0 253L75 217L150 217L225 235L300 199L375 190L450 145L525 118L600 208L675 235L750 145L825 208L900 163L900 44L825 170L750 35L675 170L600 143L525 62L450 35L375 107L300 89L225 116L150 107L75 116L0 197Z" fill="#3958c7"></path><path d="M0 280L75 361L150 334L225 316L300 307L375 217L450 298L525 154L600 298L675 298L750 217L825 352L900 199L900 161L825 206L750 143L675 233L600 206L525 116L450 143L375 188L300 197L225 233L150 215L75 215L0 251Z" fill="#13489c"></path><path d="M0 460L75 397L150 406L225 370L300 487L375 334L450 442L525 280L600 433L675 406L750 406L825 442L900 370L900 197L825 350L750 215L675 296L600 296L525 152L450 296L375 215L300 305L225 314L150 332L75 359L0 278Z" fill="#003672"></path><path d="M0 820L75 667L150 586L225 487L300 685L375 442L450 676L525 550L600 568L675 595L750 523L825 649L900 649L900 368L825 440L750 404L675 404L600 431L525 278L450 440L375 332L300 485L225 368L150 404L75 395L0 458Z" fill="#002448"></path><path d="M0 901L75 901L150 901L225 901L300 901L375 901L450 901L525 901L600 901L675 901L750 901L825 901L900 901L900 647L825 647L750 521L675 593L600 566L525 548L450 674L375 440L300 683L225 485L150 584L75 665L0 818Z" fill="#001122"></path></svg>